<svg width="30" height="30" viewBox="0 0 30 30" fill="none" xmlns="http://www.w3.org/2000/svg">
<path fill-rule="evenodd" clip-rule="evenodd" d="M16.7372 8.35563V1.29631L11.7779 3.7338V10.7592L16.7372 8.35563ZM17.6461 1.29631V8.35412L22.6404 10.7622V3.73678L17.6461 1.29631ZM16.9781 0.0606344C17.107 -0.0174242 17.2607 -0.020369 17.3909 0.0532704L23.2552 2.91938V2.91791C23.4323 2.99449 23.5494 3.18596 23.5494 3.3995V11.5383C23.5494 11.7489 23.4349 11.9389 23.2604 12.0169L17.3571 14.6224C17.2503 14.6695 17.1331 14.6695 17.0264 14.6224L11.1857 12.0273C10.9969 11.9595 10.8693 11.7622 10.8693 11.5383V3.3995C10.8693 3.19478 10.9761 3.0107 11.1414 2.92967L16.9771 0.0606201L16.9781 0.0606344ZM17.1917 9.25099L21.8944 11.5176L17.1917 13.5943L12.5176 11.5176L17.1917 9.25099ZM0 13.6872V29.486C0 29.7702 0.203115 30 0.454407 30H3.49069C3.57402 30 3.65735 29.9735 3.72896 29.9249C5.01535 29.7879 6.05956 28.6922 6.27828 27.2517L17.3063 27.2473L17.305 27.2459C19.5588 27.3342 21.7501 26.3975 23.3866 24.6419C23.4036 24.6257 23.4205 24.6081 23.4361 24.5889L29.2158 17.1616V17.1601C29.5569 16.7846 29.7991 16.3089 29.9176 15.786C30.1011 14.9745 29.9749 14.1144 29.5712 13.4133C29.1676 12.7108 28.5218 12.2336 27.7927 12.0966C27.3161 12.0082 26.8279 12.0774 26.3865 12.2969C25.9386 12.5193 25.5506 12.8713 25.2629 13.319L20.7098 19.2073C20.5379 19.4149 20.3283 19.5769 20.0952 19.683C19.9572 19.7478 19.8127 19.7934 19.6656 19.8214C20.1252 19.0776 20.189 18.11 19.8309 17.297C19.4742 16.4855 18.7529 15.9582 17.9508 15.9244C17.9326 15.9214 17.9144 15.9214 17.8961 15.9214H14.4367C13.3716 14.6695 11.9303 13.9169 10.3993 13.8123C8.86678 13.7078 7.35517 14.2601 6.1665 15.3573C5.77589 14.0701 4.71346 13.1967 3.51039 13.1746C2.50135 13.1496 1.46755 13.1746 0.455874 13.1746C0.336088 13.1731 0.220212 13.2276 0.13428 13.3234C0.0483485 13.4206 0 13.5517 0 13.6872ZM0.908813 14.2013H3.46206V14.2027C4.49327 14.2013 5.34605 15.1115 5.40595 16.2765C5.38512 16.3648 5.38642 16.4591 5.40855 16.5489V26.7056C5.40855 27.2904 5.20414 27.85 4.83959 28.2624C4.47371 28.6763 3.97897 28.9075 3.46207 28.9075C3.38655 28.9075 3.31234 28.9296 3.24463 28.9708H0.908837L0.908813 14.2013ZM7.92407 15.328L7.92537 15.3294C7.32384 15.6299 6.7783 16.057 6.3187 16.5872V26.224L17.3324 26.2196C19.344 26.2976 21.2981 25.4611 22.7617 23.8984L28.5387 16.4696L28.5661 16.4372C28.7952 16.1898 28.958 15.8746 29.0361 15.527C29.1155 15.1735 29.1077 14.8024 29.0127 14.4548C28.82 13.7478 28.2913 13.225 27.6455 13.1042C27.3409 13.0468 27.0284 13.091 26.7459 13.2323C26.4438 13.3826 26.1834 13.6227 25.992 13.926L25.966 13.9643L21.3739 19.9072C21.1135 20.2224 20.7945 20.4698 20.4404 20.6318C20.1643 20.76 19.8714 20.8395 19.5732 20.8675C19.5003 20.919 19.417 20.9456 19.3323 20.9456H13.205C13.0813 20.9485 12.9629 20.897 12.8756 20.7997C12.7871 20.7025 12.7376 20.57 12.7376 20.4315C12.7376 20.2931 12.7871 20.1591 12.8756 20.0633C12.9629 19.9661 13.0813 19.9131 13.205 19.9175H17.6708C17.7359 19.8778 17.8075 19.8571 17.8817 19.8571C18.577 19.8468 19.1407 19.2121 19.1512 18.4256C19.1629 17.6376 18.6186 16.9837 17.9221 16.9483H14.2529C14.1514 16.9483 14.0524 16.91 13.9717 16.8393C13.9379 16.8143 13.9079 16.7848 13.8806 16.7524C13.1462 15.8378 12.1749 15.2089 11.106 14.9527C10.0371 14.6979 8.92383 14.829 7.92519 15.3282L7.92407 15.328ZM21.6629 8.65621C21.6629 8.94046 21.4598 9.17023 21.2085 9.17023C20.9572 9.17023 20.7541 8.94047 20.7541 8.65621V4.50877C20.7541 4.22451 20.9572 3.99475 21.2085 3.99475C21.4598 3.99475 21.6629 4.22451 21.6629 4.50877V8.65621ZM12.5878 8.76814V8.76962C12.3586 8.88155 12.0917 8.76372 11.9915 8.50451C11.8912 8.2453 11.9954 7.94189 12.2258 7.82995L15.9639 5.97272H15.9626C16.0733 5.91381 16.1996 5.90939 16.3142 5.958C16.4288 6.0066 16.5199 6.10675 16.5694 6.23194C16.6175 6.3586 16.6189 6.50294 16.5733 6.63107C16.5277 6.75774 16.4379 6.85936 16.3246 6.91238L12.5878 8.76814ZM12.5878 7.18782V7.18929C12.4771 7.24526 12.3508 7.24968 12.2375 7.20107C12.1243 7.151 12.0331 7.05232 11.985 6.92713C11.9355 6.80047 11.9342 6.65908 11.9797 6.53094C12.024 6.4028 12.1126 6.30118 12.2258 6.24816L15.9639 4.39093L15.9626 4.3924C16.0733 4.33349 16.1996 4.32907 16.3142 4.37768C16.4288 4.42628 16.5199 4.52643 16.5694 4.65309C16.6176 4.77828 16.6189 4.92262 16.5733 5.05076C16.5277 5.17889 16.4379 5.27904 16.3246 5.33206L12.5878 7.18782ZM12.5878 5.60749V5.60896C12.4771 5.66788 12.3495 5.67377 12.2349 5.62516C12.1204 5.57656 12.0279 5.47641 11.9785 5.34975C11.929 5.22309 11.9277 5.07875 11.9745 4.95061C12.0214 4.82248 12.1113 4.72085 12.2258 4.66931L15.9639 2.81208H15.9626C16.0733 2.75317 16.1996 2.74875 16.3142 2.79735C16.4288 2.84743 16.5199 2.94611 16.5694 3.07277C16.6176 3.19943 16.6189 3.34229 16.5733 3.47044C16.5277 3.59857 16.4379 3.7002 16.3246 3.75174L12.5878 5.60749Z" fill="#F57A00"/>
</svg>
