<svg width="30" height="30" viewBox="0 0 30 30" fill="none" xmlns="http://www.w3.org/2000/svg">
<path d="M28.0417 3.84773H22.079C21.673 3.3002 20.7734 2.86517 19.616 2.67391C19.4953 2.00262 19.0236 1.36133 18.2721 0.870052C17.3944 0.307518 16.2315 0 15.0027 0C12.622 0 10.6528 1.17007 10.3895 2.67391C9.23203 2.86517 8.33241 3.3002 7.92649 3.84773H1.96379C0.877673 3.84773 0 4.45152 0 5.19031V28.6592C0 29.4018 0.883159 30.0018 1.96379 30.0018H28.0362C29.1223 30.0018 30 29.398 30 28.6592V5.19031C30.0055 4.44777 29.1223 3.84773 28.0417 3.84773ZM9.18814 4.50777C9.18814 4.15525 9.95611 3.71272 11.1958 3.61147L11.1903 3.58897H11.8541V3.01143C11.8541 1.91637 13.2638 1.02381 14.9972 1.02381C15.8475 1.02381 16.6429 1.23382 17.2353 1.6126C17.8113 1.99137 18.1404 2.5014 18.1404 3.01143V3.58897H18.283C18.4641 3.58897 18.6396 3.59647 18.8042 3.61147C20.0439 3.71272 20.8118 4.15525 20.8118 4.50777V5.59534C20.8118 5.62159 20.7844 5.64034 20.746 5.64034H9.25397C9.21557 5.64034 9.18814 5.62159 9.18814 5.59534V4.50777ZM28.5079 28.6592C28.5079 28.8317 28.294 28.978 28.0417 28.978H1.96379C1.71146 28.978 1.49753 28.8317 1.49753 28.6592V5.19031C1.49753 5.0178 1.71146 4.87154 1.96379 4.87154H7.68513V5.59534C7.68513 6.18787 8.38727 6.6679 9.25397 6.6679H20.746C21.6072 6.6679 22.3148 6.18787 22.3148 5.59534V4.87154H28.0362C28.2885 4.87154 28.5024 5.0178 28.5024 5.19031V28.6592H28.5079Z" fill="#F57A00"/>
<path d="M23 21H11V22H23V21Z" fill="#F57A00"/>
<path d="M23 11H11V12H23V11Z" fill="#F57A00"/>
<path d="M23.25 14H7V15.0276H23.25V14Z" fill="#F57A00"/>
<path d="M23.5 23.882H7.25V24.9095H23.5V23.882Z" fill="#F57A00"/>
<path d="M10 20.6682L9.45301 20L8.09117 21.667L7.54417 21.0023L7 21.667L8.09117 23L10 20.6682Z" fill="#F57A00"/>
<path d="M10 10.6682L9.45301 10L8.09117 11.667L7.54417 11.0023L7 11.667L8.09117 13L10 10.6682Z" fill="#F57A00"/>
</svg>
