<svg width="27" height="30" viewBox="0 0 27 30" fill="none" xmlns="http://www.w3.org/2000/svg">
<path d="M8.81859 10.85C11.8586 10.85 14.3286 8.415 14.3286 5.425C14.3286 2.435 11.8586 0 8.81859 0C5.77859 0 3.30859 2.435 3.30859 5.425C3.30859 8.415 5.78359 10.85 8.81859 10.85ZM8.81859 1C11.3036 1 13.3286 2.985 13.3286 5.425C13.3286 7.865 11.3036 9.85 8.81859 9.85C6.33359 9.85 4.30859 7.865 4.30859 5.425C4.30859 2.985 6.33359 1 8.81859 1Z" fill="#F57A00"/>
<path d="M17.94 13.33C16.615 13.33 15.37 13.645 14.255 14.19C12.72 12.985 10.815 12.315 8.855 12.315H8.79C3.945 12.315 0 16.26 0 21.11V21.66C0 21.935 0.225 22.16 0.5 22.16H9.595C9.855 26.525 13.495 30 17.94 30C22.555 30 26.31 26.26 26.31 21.665C26.31 17.07 22.555 13.33 17.94 13.33ZM1 21.16V21.11C1 16.81 4.495 13.315 8.79 13.315H8.855C10.455 13.315 12.01 13.81 13.31 14.725C11.19 16.135 9.755 18.48 9.595 21.16H1ZM17.94 29C13.875 29 10.57 25.71 10.57 21.665C10.57 17.62 13.875 14.33 17.94 14.33C22.005 14.33 25.31 17.62 25.31 21.665C25.31 25.71 22.005 29 17.94 29Z" fill="#F57A00"/>
<path d="M22.2087 19.665L19.8587 20.71L18.3237 18.845C18.1337 18.615 17.7437 18.615 17.5537 18.845L16.0187 20.71L13.6687 19.665C13.4987 19.59 13.2987 19.615 13.1537 19.73C13.0087 19.845 12.9387 20.035 12.9737 20.215L13.7437 24.265C13.7887 24.5 13.9937 24.67 14.2337 24.67H21.6437C21.8837 24.67 22.0887 24.5 22.1337 24.265L22.9037 20.215C22.9387 20.03 22.8687 19.845 22.7237 19.73C22.5787 19.615 22.3787 19.59 22.2087 19.665ZM21.2287 23.67H14.6487L14.1337 20.965L15.9587 21.775C16.1637 21.865 16.4037 21.81 16.5487 21.635L17.9387 19.945L19.3287 21.635C19.4737 21.81 19.7137 21.865 19.9187 21.775L21.7437 20.965L21.2287 23.67Z" fill="#F57A00"/>
</svg>
