<svg width="32" height="32" viewBox="0 0 32 32" fill="none" xmlns="http://www.w3.org/2000/svg">
<path d="M26.6323 26.0298C26.7485 26.3673 27.0651 26.5785 27.4021 26.5785C27.4896 26.5785 27.5801 26.5642 27.6677 26.534L27.6678 26.5339L29.0943 25.6401L29.1564 25.7184C29.1565 25.7184 29.1565 25.7184 29.1565 25.7184C29.5093 25.4386 29.5684 24.9267 29.2885 24.575C29.0101 24.2205 28.495 24.1615 28.1447 24.443C27.8425 24.6814 27.5037 24.8671 27.1363 24.9945C26.7116 25.141 26.486 25.6052 26.6323 26.0298ZM26.6323 26.0298L26.7268 25.9972L26.6323 26.0298C26.6323 26.0298 26.6323 26.0298 26.6323 26.0298ZM30.9577 22.9167L30.9577 22.9164C31.0516 22.5238 31.1 22.1198 31.1 21.7143V21.3055C31.1 20.8555 30.7357 20.4912 30.2857 20.4912C29.8357 20.4912 29.4714 20.8555 29.4714 21.3055V21.7143C29.4714 21.9911 29.4389 22.2677 29.3738 22.5346L29.3737 22.535C29.2688 22.9724 29.5376 23.4112 29.9746 23.5177L29.9764 23.518C30.0385 23.532 30.103 23.54 30.1657 23.54C30.533 23.54 30.867 23.2905 30.9577 22.9167ZM30.6404 18.1656L30.6403 18.1653C30.4027 17.6476 30.084 17.1766 29.6913 16.7654C29.3823 16.4405 28.867 16.4283 28.5399 16.7395L28.5397 16.7397C28.2152 17.0498 28.2025 17.5651 28.5142 17.8911L28.583 17.8254L28.5142 17.8911C28.7813 18.1704 28.9982 18.4903 29.1581 18.8427L29.1582 18.843C29.2951 19.1422 29.591 19.3185 29.8993 19.3185C30.0123 19.3185 30.1281 19.2946 30.2374 19.2455L30.2382 19.2452C30.6468 19.0576 30.8264 18.5743 30.6404 18.1656ZM26.4966 16.8496L26.4982 16.8498C26.5343 16.8543 26.5721 16.8575 26.611 16.8575C27.0105 16.8575 27.3587 16.5633 27.416 16.1562L27.416 16.1561C27.478 15.711 27.168 15.299 26.7225 15.2369L26.7224 15.2369C26.4867 15.2042 26.245 15.1857 26 15.1857C25.55 15.1857 25.1857 15.55 25.1857 16C25.1857 16.4501 25.55 16.8143 26 16.8143C26.1681 16.8143 26.3336 16.8265 26.4966 16.8496ZM27.4286 8.24286C29.4537 8.24286 31.1 6.59653 31.1 4.57143C31.1 2.54633 29.4537 0.9 27.4286 0.9C25.4035 0.9 23.7571 2.54633 23.7571 4.57143C23.7571 6.59653 25.4035 8.24286 27.4286 8.24286ZM15.4243 8.00431L15.495 7.9336L15.4243 8.00431C15.5833 8.1633 15.7918 8.24286 16 8.24286C16.2082 8.24286 16.4167 8.16332 16.5757 8.00431L19.4329 5.14717C19.7509 4.8291 19.7509 4.31377 19.4329 3.9957L16.5757 1.13856C16.2577 0.820494 15.7423 0.820494 15.4243 1.13856C15.1062 1.45663 15.1062 1.97196 15.4243 2.29002L16.8914 3.75714H7.42857C3.82841 3.75714 0.9 6.68556 0.9 10.2857C0.9 13.8859 3.82841 16.8143 7.42857 16.8143H23.1428C23.5929 16.8143 23.9571 16.4501 23.9571 16C23.9571 15.55 23.5929 15.1857 23.1428 15.1857H7.42856C4.72709 15.1857 2.52856 12.9872 2.52856 10.2857C2.52856 7.58426 4.72709 5.38573 7.42856 5.38573H16.8914L15.4243 6.85285C15.1062 7.17091 15.1062 7.68624 15.4243 8.00431ZM27.4286 2.52857C28.555 2.52857 29.4714 3.44501 29.4714 4.57143C29.4714 5.69784 28.555 6.61429 27.4286 6.61429C26.3022 6.61429 25.3857 5.69784 25.3857 4.57143C25.3857 3.44501 26.3022 2.52857 27.4286 2.52857ZM11.7143 25.1857H11.0136C10.6205 22.763 8.53348 20.9 6 20.9C3.18807 20.9 0.9 23.1881 0.9 26C0.9 28.8119 3.18807 31.1 6 31.1C8.53348 31.1 10.6205 29.237 11.0136 26.8143H11.7143C12.1643 26.8143 12.5286 26.45 12.5286 26C12.5286 25.55 12.1643 25.1857 11.7143 25.1857ZM6 29.4714C4.08604 29.4714 2.52857 27.9146 2.52857 26C2.52857 24.0854 4.08604 22.5286 6 22.5286C7.91396 22.5286 9.47143 24.0854 9.47143 26C9.47143 27.9146 7.91396 29.4714 6 29.4714ZM20.2857 26.8143C20.7358 26.8143 21.1 26.4501 21.1 26C21.1 25.55 20.7358 25.1857 20.2857 25.1857H18.8571C18.4071 25.1857 18.0429 25.55 18.0429 26C18.0429 26.4501 18.4071 26.8143 18.8571 26.8143H20.2857ZM24.5714 26.8143C25.0215 26.8143 25.3857 26.4501 25.3857 26C25.3857 25.55 25.0215 25.1857 24.5714 25.1857H23.1429C22.6928 25.1857 22.3286 25.55 22.3286 26C22.3286 26.4501 22.6928 26.8143 23.1429 26.8143H24.5714ZM16 26.8143C16.45 26.8143 16.8143 26.4501 16.8143 26C16.8143 25.55 16.45 25.1857 16 25.1857H14.5714C14.1214 25.1857 13.7571 25.55 13.7571 26C13.7571 26.4501 14.1214 26.8143 14.5714 26.8143H16Z" fill="#F57A00" stroke="#F57A00" stroke-width="0.2"/>
</svg>
