<svg width="30" height="30" viewBox="0 0 30 30" fill="none" xmlns="http://www.w3.org/2000/svg">
<path d="M2.99489 17.7918L14.5989 24.4928C14.6169 24.5048 14.6349 24.5108 14.6529 24.5168C14.6589 24.5168 14.6589 24.5228 14.6649 24.5228C14.6949 24.5348 14.7249 24.5468 14.7549 24.5528C14.7609 24.5528 14.7729 24.5588 14.7789 24.5588C14.8089 24.5648 14.8449 24.5708 14.8809 24.5708C14.9169 24.5708 14.9469 24.5648 14.9829 24.5588C14.9889 24.5588 15.0009 24.5528 15.0069 24.5528C15.0369 24.5468 15.0669 24.5348 15.0969 24.5228C15.1029 24.5228 15.1029 24.5168 15.1089 24.5168C15.1269 24.5108 15.1449 24.4988 15.1629 24.4928L20.9649 21.1453C21.1389 21.0433 21.2469 20.8634 21.2469 20.6594V13.9584C21.2469 13.9404 21.2469 13.9224 21.2409 13.8984C21.2409 13.8924 21.2409 13.8864 21.2409 13.8864C21.2349 13.8564 21.2289 13.8264 21.2229 13.7964C21.2229 13.7904 21.2169 13.7784 21.2169 13.7724C21.2049 13.7424 21.1929 13.7124 21.1749 13.6824C21.1569 13.6525 21.1389 13.6285 21.1149 13.6045C21.1089 13.5985 21.1029 13.5925 21.0969 13.5865C21.0729 13.5625 21.0549 13.5445 21.0249 13.5205C21.0189 13.5145 21.0189 13.5145 21.0129 13.5145C20.9949 13.5025 20.9829 13.4905 20.9649 13.4845L15.4449 10.299V3.90991C15.4449 3.89192 15.4449 3.87392 15.4389 3.84992C15.4389 3.84392 15.4389 3.83792 15.4389 3.83792C15.4329 3.80793 15.4269 3.77793 15.4209 3.74794C15.4209 3.74194 15.4149 3.72994 15.4149 3.72394C15.4029 3.69395 15.3909 3.66395 15.3729 3.63396C15.3549 3.60396 15.3369 3.57996 15.3129 3.55597C15.3069 3.54997 15.3009 3.54397 15.2949 3.53797C15.2709 3.51397 15.2529 3.49598 15.2229 3.47198C15.2169 3.46598 15.2169 3.46598 15.2109 3.46598C15.1929 3.45398 15.1809 3.44198 15.1629 3.43598L9.35489 0.0764885C9.18089 -0.0254962 8.97089 -0.0254962 8.79689 0.0764885L2.99489 3.42999C2.97689 3.44198 2.96489 3.44798 2.94689 3.45998C2.94089 3.45998 2.94089 3.46598 2.93489 3.46598C2.91089 3.48398 2.88689 3.50797 2.86289 3.53197C2.85689 3.53797 2.85089 3.54397 2.84489 3.54997C2.82089 3.57396 2.80289 3.60396 2.78489 3.62796C2.76689 3.65795 2.75489 3.68795 2.74289 3.71794C2.74289 3.72394 2.73689 3.73594 2.73689 3.74194C2.72489 3.77193 2.71889 3.80193 2.71889 3.83193C2.71889 3.83792 2.71889 3.84392 2.71889 3.84392C2.71889 3.86192 2.71289 3.87992 2.71289 3.90391V17.2999C2.71889 17.5099 2.82689 17.6898 2.99489 17.7918ZM14.3229 23.041L9.63689 20.3354V14.9243L14.3229 17.6299V23.041ZM20.1249 20.3354L15.4389 23.041V17.6299L20.1249 14.9243V20.3354ZM19.5669 13.9584L14.8809 16.664L10.1949 13.9584L14.8809 11.2528L19.5669 13.9584ZM14.3229 10.287L9.63689 12.9926V7.58136L14.3229 4.87577V10.287ZM9.07889 1.21032L13.7649 3.91591L9.07889 6.62151L4.39289 3.90991L9.07889 1.21032ZM3.83489 4.88177L8.52089 7.58736V12.9985L3.83489 10.293V4.88177ZM3.83489 11.5768L8.52089 14.2824V19.6935L3.83489 16.988V11.5768Z" fill="#F57A00"/>
<path d="M29.442 0.00442505C29.136 0.00442505 28.884 0.256387 28.884 0.562342V3.20195H27.9C27.594 3.20195 27.342 3.45391 27.342 3.75986C27.342 4.06582 27.594 4.31778 27.9 4.31778H28.884V8.8231H27.9C27.594 8.8231 27.342 9.07506 27.342 9.38102C27.342 9.68697 27.594 9.93893 27.9 9.93893H28.884V14.4443H27.9C27.594 14.4443 27.342 14.6962 27.342 15.0022C27.342 15.3081 27.594 15.5601 27.9 15.5601H28.884V20.0654H27.9C27.594 20.0654 27.342 20.3174 27.342 20.6233C27.342 20.9293 27.594 21.1812 27.9 21.1812H28.884V25.6866H27.9C27.594 25.6866 27.342 25.9385 27.342 26.2445C27.342 26.5504 27.594 26.8024 27.9 26.8024H28.884V28.8841H26.802V27.9002C26.802 27.5943 26.55 27.3423 26.244 27.3423C25.938 27.3423 25.686 27.5943 25.686 27.9002V28.8841H21.18V27.9002C21.18 27.5943 20.928 27.3423 20.622 27.3423C20.316 27.3423 20.064 27.5943 20.064 27.9002V28.8841H15.558V27.9002C15.558 27.5943 15.306 27.3423 15 27.3423C14.694 27.3423 14.442 27.5943 14.442 27.9002V28.8841H9.936V27.9002C9.936 27.5943 9.684 27.3423 9.378 27.3423C9.072 27.3423 8.82 27.5943 8.82 27.9002V28.8841H4.314V27.9002C4.314 27.5943 4.062 27.3423 3.756 27.3423C3.45 27.3423 3.198 27.5943 3.198 27.9002V28.8841H0.558C0.252 28.8841 0 29.1361 0 29.442C0 29.748 0.252 29.9999 0.558 29.9999H29.442C29.748 29.9999 30 29.748 30 29.442V0.562342C30 0.256387 29.748 0.00442505 29.442 0.00442505Z" fill="#F57A00"/>
</svg>
