<svg width="32" height="32" viewBox="0 0 32 32" fill="none" xmlns="http://www.w3.org/2000/svg">
<mask id="path-1-outside-1_800_5047" maskUnits="userSpaceOnUse" x="0" y="0" width="32" height="32" fill="black">
<rect fill="white" width="32" height="32"/>
<path fill-rule="evenodd" clip-rule="evenodd" d="M7.03904 13.6617L8.6838 14.3454H8.6851C8.86221 14.4131 8.96899 14.5967 8.93644 14.7855C8.79709 15.5838 8.79709 16.399 8.93513 17.1972C8.96509 17.3808 8.86481 17.5592 8.69421 17.6309L7.03512 18.3158L8.01182 20.6807L9.65138 20.0035V20.0048C9.82718 19.9215 10.0368 19.9762 10.1488 20.1337C10.6098 20.7874 11.1763 21.3578 11.8248 21.824C11.9954 21.9256 12.0645 22.1365 11.9902 22.3189L11.2987 23.9779L13.661 24.9584L14.3447 23.3137C14.4124 23.1366 14.5961 23.0299 14.7849 23.0624C15.5832 23.2018 16.3984 23.2018 17.1967 23.0637C17.3803 23.0338 17.5587 23.134 17.6303 23.3046L18.3153 24.9637L20.6803 23.987L20.0031 22.3475H20.0044C19.9211 22.1717 19.9758 21.9621 20.1333 21.8501C20.787 21.3891 21.3575 20.8226 21.8237 20.1741C21.9252 20.0035 22.1362 19.9345 22.3185 20.0088L23.9789 20.7002L24.9595 18.338L23.3148 17.6544C23.1377 17.5867 23.0309 17.403 23.0634 17.2142C23.2028 16.416 23.2028 15.6008 23.0647 14.8025C23.0348 14.6189 23.135 14.4405 23.3056 14.3689L24.9647 13.6839L23.988 11.3191L22.3485 11.9962V11.9949C22.1727 12.0783 21.963 12.0236 21.851 11.866C21.39 11.2123 20.8235 10.6419 20.175 10.1758C20.0044 10.0742 19.9354 9.86323 20.0096 9.68091L20.7011 8.02059L18.3388 7.04003L17.6551 8.68472C17.5874 8.86182 17.4038 8.9686 17.215 8.93604C16.4167 8.79671 15.6015 8.79671 14.8032 8.93474C14.6196 8.96469 14.4412 8.86442 14.3695 8.69383L13.6845 7.03481L11.3196 8.01147L11.9968 9.65096H11.9955C12.0788 9.82675 12.0241 10.0364 11.8665 10.1484C11.2128 10.6094 10.6424 11.1758 10.1762 11.8243C10.0746 11.9949 9.86366 12.0639 9.68133 11.9897L8.02094 11.2982L7.04034 13.6604L7.03904 13.6617ZM8.10298 14.9653L6.36578 14.2451C6.16263 14.1605 6.06626 13.9274 6.1496 13.7242L7.43624 10.6263H7.43755C7.52219 10.4231 7.7553 10.3268 7.95845 10.4114L9.69696 11.1315C9.90532 10.8607 10.1319 10.6042 10.3741 10.3619C10.6163 10.1197 10.8755 9.89317 11.1464 9.68481L10.4275 7.94505C10.3442 7.7419 10.4418 7.50881 10.645 7.42547L13.7457 6.14541C13.8434 6.10505 13.9528 6.10505 14.0504 6.14541C14.1468 6.18578 14.2249 6.26391 14.2653 6.36158L14.9828 8.10001C15.6626 8.01276 16.3515 8.01276 17.0326 8.10001L17.754 6.36548C17.8387 6.16234 18.0718 6.06597 18.2749 6.14931L21.373 7.4359V7.4372C21.5762 7.52185 21.6726 7.75494 21.5879 7.95809L20.8677 9.69652C21.1386 9.90487 21.3965 10.1315 21.6374 10.3736C21.8796 10.6159 22.1062 10.875 22.3145 11.1459L24.0544 10.4271C24.2575 10.3437 24.4906 10.4414 24.574 10.6445L25.8541 13.7451C25.8945 13.8427 25.8945 13.9521 25.8541 14.0498C25.8137 14.1462 25.7356 14.2243 25.6379 14.2647L23.8981 14.9822C23.9853 15.6632 23.9853 16.3508 23.8981 17.0318L25.634 17.7532C25.8371 17.8379 25.9335 18.071 25.8502 18.2741L24.5635 21.3721H24.5622C24.4776 21.5752 24.2445 21.6716 24.0413 21.587L22.3028 20.8668C22.0944 21.1377 21.8678 21.3955 21.6256 21.6364C21.3834 21.8786 21.1256 22.1052 20.8534 22.3136L21.5722 24.0533C21.6556 24.2565 21.5579 24.4896 21.3548 24.5729L18.2541 25.853C18.1564 25.8933 18.047 25.8933 17.9493 25.853C17.853 25.8126 17.7748 25.7345 17.7345 25.6368L17.0169 23.897C16.3358 23.9843 15.6482 23.9843 14.9672 23.897L14.2457 25.6329C14.1611 25.836 13.928 25.9324 13.7248 25.849L10.6267 24.5624V24.5611C10.4236 24.4765 10.3272 24.2434 10.4119 24.0402L11.132 22.3018C10.8611 22.0935 10.6033 21.8669 10.3624 21.6247C10.1202 21.3825 9.89358 21.1246 9.68522 20.8525L7.94538 21.5713C7.74223 21.6546 7.50912 21.557 7.42578 21.3538L6.14567 18.2533C6.1053 18.1556 6.1053 18.0462 6.14567 17.9485C6.18603 17.8522 6.26417 17.774 6.36184 17.7337L8.10035 17.0162C8.0131 16.3364 8.0131 15.6475 8.10035 14.9665L8.10298 14.9653ZM19.5839 14.5173C19.9772 15.4679 19.9759 16.5357 19.58 17.4837C19.1867 18.4343 18.4314 19.1883 17.4807 19.5803C16.5301 19.9722 15.4622 19.9709 14.5129 19.5763C13.5635 19.1818 12.8095 18.4265 12.4175 17.4759C12.0242 16.5266 12.0255 15.4588 12.4201 14.5095C12.8147 13.5601 13.57 12.8062 14.5207 12.4129C15.4714 12.0209 16.5379 12.0222 17.4885 12.4168C18.4379 12.8101 19.1919 13.5667 19.5839 14.5173ZM17.7672 11.6719C17.7842 11.6785 17.8024 11.685 17.8193 11.6941C20.1764 12.6903 21.2951 15.3961 20.3275 17.7663C20.321 17.7832 20.3145 17.8015 20.3053 17.8184C19.3091 20.1754 16.6032 21.2941 14.2328 20.3264C14.2159 20.3199 14.1977 20.3134 14.1807 20.3043C11.8237 19.3081 10.7049 16.6023 11.6726 14.2321C11.6791 14.2151 11.6856 14.1969 11.6947 14.18C12.691 11.823 15.3969 10.7043 17.7672 11.6719ZM24.9882 1.49265L25.3516 4.26765V4.26895C22.7249 2.17632 19.4704 1.02514 16.1119 1.00041C12.7535 0.975666 9.48204 2.07734 6.82434 4.1309C6.73839 4.19471 6.68239 4.29107 6.66807 4.39655C6.65374 4.50203 6.68239 4.60881 6.74751 4.69346C6.81262 4.7781 6.90899 4.83279 7.01447 4.84581C7.12125 4.85883 7.22804 4.82758 7.31138 4.76117C9.8443 2.80395 12.9645 1.75959 16.1666 1.79736C19.3676 1.83512 22.4631 2.9524 24.9491 4.96952L22.023 5.35236H22.0243C21.8107 5.38621 21.6636 5.58285 21.6922 5.7964C21.7195 6.00996 21.9123 6.16363 22.1272 6.1415L25.9127 5.64535C26.026 5.63624 26.1289 5.58024 26.1979 5.49039C26.2669 5.40054 26.2942 5.28594 26.2734 5.17526L25.7772 1.3899C25.7499 1.17243 25.5493 1.01877 25.3319 1.04744C25.1131 1.07608 24.9596 1.27519 24.9882 1.49265ZM1.49267 7.0115L4.26779 6.6482H4.26909C2.17637 9.27475 1.02514 12.5291 1.00041 15.8874C0.975665 19.2457 2.07739 22.517 4.13104 25.1746C4.19485 25.2606 4.29122 25.3165 4.3967 25.3309C4.50218 25.3452 4.60897 25.3165 4.69362 25.2514C4.77826 25.1863 4.83296 25.09 4.84598 24.9845C4.859 24.8777 4.82775 24.7709 4.76133 24.6876C2.80403 22.1548 1.75962 19.0347 1.79739 15.8328C1.83516 12.6319 2.95248 9.5365 4.96969 7.0506L5.35255 9.97664V9.97534C5.36296 10.0821 5.41766 10.1811 5.501 10.2475C5.58565 10.3139 5.69374 10.3439 5.80052 10.3295C5.90601 10.3165 6.00238 10.2592 6.06749 10.1733C6.1313 10.0873 6.15865 9.97924 6.14172 9.87246L5.64555 6.08711C5.63643 5.97382 5.58044 5.87094 5.49058 5.80193C5.40073 5.73291 5.28613 5.70556 5.17543 5.7264L1.38991 6.22254C1.28313 6.23296 1.18546 6.28635 1.11904 6.371C1.05263 6.45564 1.02268 6.56372 1.0357 6.6692C1.05002 6.77598 1.10602 6.87235 1.19327 6.93746C1.27922 7.00126 1.38719 7.02843 1.49267 7.0115ZM7.01177 30.506L6.64845 27.7311V27.7297C9.27511 29.8224 12.5296 30.9736 15.8881 30.9996C19.2465 31.0243 22.518 29.9214 25.1757 27.8678C25.2616 27.804 25.3176 27.7089 25.3319 27.6034C25.3463 27.498 25.3176 27.3899 25.2525 27.3052C25.1874 27.2206 25.091 27.1659 24.9855 27.1542C24.8787 27.1412 24.772 27.1711 24.6886 27.2388C22.1557 29.196 19.0355 30.2404 15.8334 30.2026C12.6324 30.1649 9.53687 29.0476 7.05086 27.0305L9.97703 26.6476H9.97573C10.1893 26.6138 10.3364 26.4172 10.3078 26.2023C10.2805 25.9887 10.0877 25.8364 9.87284 25.8585L6.08732 26.3534C5.97403 26.3625 5.87115 26.4185 5.80213 26.5083C5.73311 26.5982 5.70576 26.7128 5.7266 26.8235L6.22276 30.6088C6.25011 30.8263 6.45066 30.98 6.66813 30.9513C6.77361 30.9383 6.86737 30.8836 6.93249 30.7989C6.9963 30.7156 7.02479 30.6102 7.01177 30.506ZM30.5073 24.9872L27.7322 25.3505H27.7309C29.8236 22.7239 30.9749 19.4696 30.9996 16.1113C31.0243 12.753 29.9226 9.48167 27.869 6.82409C27.8052 6.73814 27.7088 6.68215 27.6033 6.66782C27.4978 6.6535 27.391 6.68215 27.3064 6.74726C27.2217 6.81237 27.167 6.90873 27.154 7.01421C27.141 7.12099 27.1723 7.22777 27.2387 7.31111C29.196 9.84391 30.2404 12.964 30.2026 16.1659C30.1648 19.3668 29.0475 22.4622 27.0303 24.9481L26.6475 22.0221V22.0234C26.6136 21.8098 26.417 21.6627 26.2034 21.6913C25.9898 21.7186 25.8361 21.9114 25.8583 22.1262L26.3544 25.9116C26.3636 26.0249 26.4196 26.1278 26.5094 26.1968C26.5993 26.2658 26.7139 26.2931 26.8246 26.2723L30.6101 25.7762C30.8276 25.7488 30.9812 25.5483 30.9526 25.3308C30.9239 25.112 30.7248 24.9585 30.5073 24.9872Z"/>
</mask>
<path fill-rule="evenodd" clip-rule="evenodd" d="M7.03904 13.6617L8.6838 14.3454H8.6851C8.86221 14.4131 8.96899 14.5967 8.93644 14.7855C8.79709 15.5838 8.79709 16.399 8.93513 17.1972C8.96509 17.3808 8.86481 17.5592 8.69421 17.6309L7.03512 18.3158L8.01182 20.6807L9.65138 20.0035V20.0048C9.82718 19.9215 10.0368 19.9762 10.1488 20.1337C10.6098 20.7874 11.1763 21.3578 11.8248 21.824C11.9954 21.9256 12.0645 22.1365 11.9902 22.3189L11.2987 23.9779L13.661 24.9584L14.3447 23.3137C14.4124 23.1366 14.5961 23.0299 14.7849 23.0624C15.5832 23.2018 16.3984 23.2018 17.1967 23.0637C17.3803 23.0338 17.5587 23.134 17.6303 23.3046L18.3153 24.9637L20.6803 23.987L20.0031 22.3475H20.0044C19.9211 22.1717 19.9758 21.9621 20.1333 21.8501C20.787 21.3891 21.3575 20.8226 21.8237 20.1741C21.9252 20.0035 22.1362 19.9345 22.3185 20.0088L23.9789 20.7002L24.9595 18.338L23.3148 17.6544C23.1377 17.5867 23.0309 17.403 23.0634 17.2142C23.2028 16.416 23.2028 15.6008 23.0647 14.8025C23.0348 14.6189 23.135 14.4405 23.3056 14.3689L24.9647 13.6839L23.988 11.3191L22.3485 11.9962V11.9949C22.1727 12.0783 21.963 12.0236 21.851 11.866C21.39 11.2123 20.8235 10.6419 20.175 10.1758C20.0044 10.0742 19.9354 9.86323 20.0096 9.68091L20.7011 8.02059L18.3388 7.04003L17.6551 8.68472C17.5874 8.86182 17.4038 8.9686 17.215 8.93604C16.4167 8.79671 15.6015 8.79671 14.8032 8.93474C14.6196 8.96469 14.4412 8.86442 14.3695 8.69383L13.6845 7.03481L11.3196 8.01147L11.9968 9.65096H11.9955C12.0788 9.82675 12.0241 10.0364 11.8665 10.1484C11.2128 10.6094 10.6424 11.1758 10.1762 11.8243C10.0746 11.9949 9.86366 12.0639 9.68133 11.9897L8.02094 11.2982L7.04034 13.6604L7.03904 13.6617ZM8.10298 14.9653L6.36578 14.2451C6.16263 14.1605 6.06626 13.9274 6.1496 13.7242L7.43624 10.6263H7.43755C7.52219 10.4231 7.7553 10.3268 7.95845 10.4114L9.69696 11.1315C9.90532 10.8607 10.1319 10.6042 10.3741 10.3619C10.6163 10.1197 10.8755 9.89317 11.1464 9.68481L10.4275 7.94505C10.3442 7.7419 10.4418 7.50881 10.645 7.42547L13.7457 6.14541C13.8434 6.10505 13.9528 6.10505 14.0504 6.14541C14.1468 6.18578 14.2249 6.26391 14.2653 6.36158L14.9828 8.10001C15.6626 8.01276 16.3515 8.01276 17.0326 8.10001L17.754 6.36548C17.8387 6.16234 18.0718 6.06597 18.2749 6.14931L21.373 7.4359V7.4372C21.5762 7.52185 21.6726 7.75494 21.5879 7.95809L20.8677 9.69652C21.1386 9.90487 21.3965 10.1315 21.6374 10.3736C21.8796 10.6159 22.1062 10.875 22.3145 11.1459L24.0544 10.4271C24.2575 10.3437 24.4906 10.4414 24.574 10.6445L25.8541 13.7451C25.8945 13.8427 25.8945 13.9521 25.8541 14.0498C25.8137 14.1462 25.7356 14.2243 25.6379 14.2647L23.8981 14.9822C23.9853 15.6632 23.9853 16.3508 23.8981 17.0318L25.634 17.7532C25.8371 17.8379 25.9335 18.071 25.8502 18.2741L24.5635 21.3721H24.5622C24.4776 21.5752 24.2445 21.6716 24.0413 21.587L22.3028 20.8668C22.0944 21.1377 21.8678 21.3955 21.6256 21.6364C21.3834 21.8786 21.1256 22.1052 20.8534 22.3136L21.5722 24.0533C21.6556 24.2565 21.5579 24.4896 21.3548 24.5729L18.2541 25.853C18.1564 25.8933 18.047 25.8933 17.9493 25.853C17.853 25.8126 17.7748 25.7345 17.7345 25.6368L17.0169 23.897C16.3358 23.9843 15.6482 23.9843 14.9672 23.897L14.2457 25.6329C14.1611 25.836 13.928 25.9324 13.7248 25.849L10.6267 24.5624V24.5611C10.4236 24.4765 10.3272 24.2434 10.4119 24.0402L11.132 22.3018C10.8611 22.0935 10.6033 21.8669 10.3624 21.6247C10.1202 21.3825 9.89358 21.1246 9.68522 20.8525L7.94538 21.5713C7.74223 21.6546 7.50912 21.557 7.42578 21.3538L6.14567 18.2533C6.1053 18.1556 6.1053 18.0462 6.14567 17.9485C6.18603 17.8522 6.26417 17.774 6.36184 17.7337L8.10035 17.0162C8.0131 16.3364 8.0131 15.6475 8.10035 14.9665L8.10298 14.9653ZM19.5839 14.5173C19.9772 15.4679 19.9759 16.5357 19.58 17.4837C19.1867 18.4343 18.4314 19.1883 17.4807 19.5803C16.5301 19.9722 15.4622 19.9709 14.5129 19.5763C13.5635 19.1818 12.8095 18.4265 12.4175 17.4759C12.0242 16.5266 12.0255 15.4588 12.4201 14.5095C12.8147 13.5601 13.57 12.8062 14.5207 12.4129C15.4714 12.0209 16.5379 12.0222 17.4885 12.4168C18.4379 12.8101 19.1919 13.5667 19.5839 14.5173ZM17.7672 11.6719C17.7842 11.6785 17.8024 11.685 17.8193 11.6941C20.1764 12.6903 21.2951 15.3961 20.3275 17.7663C20.321 17.7832 20.3145 17.8015 20.3053 17.8184C19.3091 20.1754 16.6032 21.2941 14.2328 20.3264C14.2159 20.3199 14.1977 20.3134 14.1807 20.3043C11.8237 19.3081 10.7049 16.6023 11.6726 14.2321C11.6791 14.2151 11.6856 14.1969 11.6947 14.18C12.691 11.823 15.3969 10.7043 17.7672 11.6719ZM24.9882 1.49265L25.3516 4.26765V4.26895C22.7249 2.17632 19.4704 1.02514 16.1119 1.00041C12.7535 0.975666 9.48204 2.07734 6.82434 4.1309C6.73839 4.19471 6.68239 4.29107 6.66807 4.39655C6.65374 4.50203 6.68239 4.60881 6.74751 4.69346C6.81262 4.7781 6.90899 4.83279 7.01447 4.84581C7.12125 4.85883 7.22804 4.82758 7.31138 4.76117C9.8443 2.80395 12.9645 1.75959 16.1666 1.79736C19.3676 1.83512 22.4631 2.9524 24.9491 4.96952L22.023 5.35236H22.0243C21.8107 5.38621 21.6636 5.58285 21.6922 5.7964C21.7195 6.00996 21.9123 6.16363 22.1272 6.1415L25.9127 5.64535C26.026 5.63624 26.1289 5.58024 26.1979 5.49039C26.2669 5.40054 26.2942 5.28594 26.2734 5.17526L25.7772 1.3899C25.7499 1.17243 25.5493 1.01877 25.3319 1.04744C25.1131 1.07608 24.9596 1.27519 24.9882 1.49265ZM1.49267 7.0115L4.26779 6.6482H4.26909C2.17637 9.27475 1.02514 12.5291 1.00041 15.8874C0.975665 19.2457 2.07739 22.517 4.13104 25.1746C4.19485 25.2606 4.29122 25.3165 4.3967 25.3309C4.50218 25.3452 4.60897 25.3165 4.69362 25.2514C4.77826 25.1863 4.83296 25.09 4.84598 24.9845C4.859 24.8777 4.82775 24.7709 4.76133 24.6876C2.80403 22.1548 1.75962 19.0347 1.79739 15.8328C1.83516 12.6319 2.95248 9.5365 4.96969 7.0506L5.35255 9.97664V9.97534C5.36296 10.0821 5.41766 10.1811 5.501 10.2475C5.58565 10.3139 5.69374 10.3439 5.80052 10.3295C5.90601 10.3165 6.00238 10.2592 6.06749 10.1733C6.1313 10.0873 6.15865 9.97924 6.14172 9.87246L5.64555 6.08711C5.63643 5.97382 5.58044 5.87094 5.49058 5.80193C5.40073 5.73291 5.28613 5.70556 5.17543 5.7264L1.38991 6.22254C1.28313 6.23296 1.18546 6.28635 1.11904 6.371C1.05263 6.45564 1.02268 6.56372 1.0357 6.6692C1.05002 6.77598 1.10602 6.87235 1.19327 6.93746C1.27922 7.00126 1.38719 7.02843 1.49267 7.0115ZM7.01177 30.506L6.64845 27.7311V27.7297C9.27511 29.8224 12.5296 30.9736 15.8881 30.9996C19.2465 31.0243 22.518 29.9214 25.1757 27.8678C25.2616 27.804 25.3176 27.7089 25.3319 27.6034C25.3463 27.498 25.3176 27.3899 25.2525 27.3052C25.1874 27.2206 25.091 27.1659 24.9855 27.1542C24.8787 27.1412 24.772 27.1711 24.6886 27.2388C22.1557 29.196 19.0355 30.2404 15.8334 30.2026C12.6324 30.1649 9.53687 29.0476 7.05086 27.0305L9.97703 26.6476H9.97573C10.1893 26.6138 10.3364 26.4172 10.3078 26.2023C10.2805 25.9887 10.0877 25.8364 9.87284 25.8585L6.08732 26.3534C5.97403 26.3625 5.87115 26.4185 5.80213 26.5083C5.73311 26.5982 5.70576 26.7128 5.7266 26.8235L6.22276 30.6088C6.25011 30.8263 6.45066 30.98 6.66813 30.9513C6.77361 30.9383 6.86737 30.8836 6.93249 30.7989C6.9963 30.7156 7.02479 30.6102 7.01177 30.506ZM30.5073 24.9872L27.7322 25.3505H27.7309C29.8236 22.7239 30.9749 19.4696 30.9996 16.1113C31.0243 12.753 29.9226 9.48167 27.869 6.82409C27.8052 6.73814 27.7088 6.68215 27.6033 6.66782C27.4978 6.6535 27.391 6.68215 27.3064 6.74726C27.2217 6.81237 27.167 6.90873 27.154 7.01421C27.141 7.12099 27.1723 7.22777 27.2387 7.31111C29.196 9.84391 30.2404 12.964 30.2026 16.1659C30.1648 19.3668 29.0475 22.4622 27.0303 24.9481L26.6475 22.0221V22.0234C26.6136 21.8098 26.417 21.6627 26.2034 21.6913C25.9898 21.7186 25.8361 21.9114 25.8583 22.1262L26.3544 25.9116C26.3636 26.0249 26.4196 26.1278 26.5094 26.1968C26.5993 26.2658 26.7139 26.2931 26.8246 26.2723L30.6101 25.7762C30.8276 25.7488 30.9812 25.5483 30.9526 25.3308C30.9239 25.112 30.7248 24.9585 30.5073 24.9872Z" fill="#F57A00"/>
<path fill-rule="evenodd" clip-rule="evenodd" d="M7.03904 13.6617L8.6838 14.3454H8.6851C8.86221 14.4131 8.96899 14.5967 8.93644 14.7855C8.79709 15.5838 8.79709 16.399 8.93513 17.1972C8.96509 17.3808 8.86481 17.5592 8.69421 17.6309L7.03512 18.3158L8.01182 20.6807L9.65138 20.0035V20.0048C9.82718 19.9215 10.0368 19.9762 10.1488 20.1337C10.6098 20.7874 11.1763 21.3578 11.8248 21.824C11.9954 21.9256 12.0645 22.1365 11.9902 22.3189L11.2987 23.9779L13.661 24.9584L14.3447 23.3137C14.4124 23.1366 14.5961 23.0299 14.7849 23.0624C15.5832 23.2018 16.3984 23.2018 17.1967 23.0637C17.3803 23.0338 17.5587 23.134 17.6303 23.3046L18.3153 24.9637L20.6803 23.987L20.0031 22.3475H20.0044C19.9211 22.1717 19.9758 21.9621 20.1333 21.8501C20.787 21.3891 21.3575 20.8226 21.8237 20.1741C21.9252 20.0035 22.1362 19.9345 22.3185 20.0088L23.9789 20.7002L24.9595 18.338L23.3148 17.6544C23.1377 17.5867 23.0309 17.403 23.0634 17.2142C23.2028 16.416 23.2028 15.6008 23.0647 14.8025C23.0348 14.6189 23.135 14.4405 23.3056 14.3689L24.9647 13.6839L23.988 11.3191L22.3485 11.9962V11.9949C22.1727 12.0783 21.963 12.0236 21.851 11.866C21.39 11.2123 20.8235 10.6419 20.175 10.1758C20.0044 10.0742 19.9354 9.86323 20.0096 9.68091L20.7011 8.02059L18.3388 7.04003L17.6551 8.68472C17.5874 8.86182 17.4038 8.9686 17.215 8.93604C16.4167 8.79671 15.6015 8.79671 14.8032 8.93474C14.6196 8.96469 14.4412 8.86442 14.3695 8.69383L13.6845 7.03481L11.3196 8.01147L11.9968 9.65096H11.9955C12.0788 9.82675 12.0241 10.0364 11.8665 10.1484C11.2128 10.6094 10.6424 11.1758 10.1762 11.8243C10.0746 11.9949 9.86366 12.0639 9.68133 11.9897L8.02094 11.2982L7.04034 13.6604L7.03904 13.6617ZM8.10298 14.9653L6.36578 14.2451C6.16263 14.1605 6.06626 13.9274 6.1496 13.7242L7.43624 10.6263H7.43755C7.52219 10.4231 7.7553 10.3268 7.95845 10.4114L9.69696 11.1315C9.90532 10.8607 10.1319 10.6042 10.3741 10.3619C10.6163 10.1197 10.8755 9.89317 11.1464 9.68481L10.4275 7.94505C10.3442 7.7419 10.4418 7.50881 10.645 7.42547L13.7457 6.14541C13.8434 6.10505 13.9528 6.10505 14.0504 6.14541C14.1468 6.18578 14.2249 6.26391 14.2653 6.36158L14.9828 8.10001C15.6626 8.01276 16.3515 8.01276 17.0326 8.10001L17.754 6.36548C17.8387 6.16234 18.0718 6.06597 18.2749 6.14931L21.373 7.4359V7.4372C21.5762 7.52185 21.6726 7.75494 21.5879 7.95809L20.8677 9.69652C21.1386 9.90487 21.3965 10.1315 21.6374 10.3736C21.8796 10.6159 22.1062 10.875 22.3145 11.1459L24.0544 10.4271C24.2575 10.3437 24.4906 10.4414 24.574 10.6445L25.8541 13.7451C25.8945 13.8427 25.8945 13.9521 25.8541 14.0498C25.8137 14.1462 25.7356 14.2243 25.6379 14.2647L23.8981 14.9822C23.9853 15.6632 23.9853 16.3508 23.8981 17.0318L25.634 17.7532C25.8371 17.8379 25.9335 18.071 25.8502 18.2741L24.5635 21.3721H24.5622C24.4776 21.5752 24.2445 21.6716 24.0413 21.587L22.3028 20.8668C22.0944 21.1377 21.8678 21.3955 21.6256 21.6364C21.3834 21.8786 21.1256 22.1052 20.8534 22.3136L21.5722 24.0533C21.6556 24.2565 21.5579 24.4896 21.3548 24.5729L18.2541 25.853C18.1564 25.8933 18.047 25.8933 17.9493 25.853C17.853 25.8126 17.7748 25.7345 17.7345 25.6368L17.0169 23.897C16.3358 23.9843 15.6482 23.9843 14.9672 23.897L14.2457 25.6329C14.1611 25.836 13.928 25.9324 13.7248 25.849L10.6267 24.5624V24.5611C10.4236 24.4765 10.3272 24.2434 10.4119 24.0402L11.132 22.3018C10.8611 22.0935 10.6033 21.8669 10.3624 21.6247C10.1202 21.3825 9.89358 21.1246 9.68522 20.8525L7.94538 21.5713C7.74223 21.6546 7.50912 21.557 7.42578 21.3538L6.14567 18.2533C6.1053 18.1556 6.1053 18.0462 6.14567 17.9485C6.18603 17.8522 6.26417 17.774 6.36184 17.7337L8.10035 17.0162C8.0131 16.3364 8.0131 15.6475 8.10035 14.9665L8.10298 14.9653ZM19.5839 14.5173C19.9772 15.4679 19.9759 16.5357 19.58 17.4837C19.1867 18.4343 18.4314 19.1883 17.4807 19.5803C16.5301 19.9722 15.4622 19.9709 14.5129 19.5763C13.5635 19.1818 12.8095 18.4265 12.4175 17.4759C12.0242 16.5266 12.0255 15.4588 12.4201 14.5095C12.8147 13.5601 13.57 12.8062 14.5207 12.4129C15.4714 12.0209 16.5379 12.0222 17.4885 12.4168C18.4379 12.8101 19.1919 13.5667 19.5839 14.5173ZM17.7672 11.6719C17.7842 11.6785 17.8024 11.685 17.8193 11.6941C20.1764 12.6903 21.2951 15.3961 20.3275 17.7663C20.321 17.7832 20.3145 17.8015 20.3053 17.8184C19.3091 20.1754 16.6032 21.2941 14.2328 20.3264C14.2159 20.3199 14.1977 20.3134 14.1807 20.3043C11.8237 19.3081 10.7049 16.6023 11.6726 14.2321C11.6791 14.2151 11.6856 14.1969 11.6947 14.18C12.691 11.823 15.3969 10.7043 17.7672 11.6719ZM24.9882 1.49265L25.3516 4.26765V4.26895C22.7249 2.17632 19.4704 1.02514 16.1119 1.00041C12.7535 0.975666 9.48204 2.07734 6.82434 4.1309C6.73839 4.19471 6.68239 4.29107 6.66807 4.39655C6.65374 4.50203 6.68239 4.60881 6.74751 4.69346C6.81262 4.7781 6.90899 4.83279 7.01447 4.84581C7.12125 4.85883 7.22804 4.82758 7.31138 4.76117C9.8443 2.80395 12.9645 1.75959 16.1666 1.79736C19.3676 1.83512 22.4631 2.9524 24.9491 4.96952L22.023 5.35236H22.0243C21.8107 5.38621 21.6636 5.58285 21.6922 5.7964C21.7195 6.00996 21.9123 6.16363 22.1272 6.1415L25.9127 5.64535C26.026 5.63624 26.1289 5.58024 26.1979 5.49039C26.2669 5.40054 26.2942 5.28594 26.2734 5.17526L25.7772 1.3899C25.7499 1.17243 25.5493 1.01877 25.3319 1.04744C25.1131 1.07608 24.9596 1.27519 24.9882 1.49265ZM1.49267 7.0115L4.26779 6.6482H4.26909C2.17637 9.27475 1.02514 12.5291 1.00041 15.8874C0.975665 19.2457 2.07739 22.517 4.13104 25.1746C4.19485 25.2606 4.29122 25.3165 4.3967 25.3309C4.50218 25.3452 4.60897 25.3165 4.69362 25.2514C4.77826 25.1863 4.83296 25.09 4.84598 24.9845C4.859 24.8777 4.82775 24.7709 4.76133 24.6876C2.80403 22.1548 1.75962 19.0347 1.79739 15.8328C1.83516 12.6319 2.95248 9.5365 4.96969 7.0506L5.35255 9.97664V9.97534C5.36296 10.0821 5.41766 10.1811 5.501 10.2475C5.58565 10.3139 5.69374 10.3439 5.80052 10.3295C5.90601 10.3165 6.00238 10.2592 6.06749 10.1733C6.1313 10.0873 6.15865 9.97924 6.14172 9.87246L5.64555 6.08711C5.63643 5.97382 5.58044 5.87094 5.49058 5.80193C5.40073 5.73291 5.28613 5.70556 5.17543 5.7264L1.38991 6.22254C1.28313 6.23296 1.18546 6.28635 1.11904 6.371C1.05263 6.45564 1.02268 6.56372 1.0357 6.6692C1.05002 6.77598 1.10602 6.87235 1.19327 6.93746C1.27922 7.00126 1.38719 7.02843 1.49267 7.0115ZM7.01177 30.506L6.64845 27.7311V27.7297C9.27511 29.8224 12.5296 30.9736 15.8881 30.9996C19.2465 31.0243 22.518 29.9214 25.1757 27.8678C25.2616 27.804 25.3176 27.7089 25.3319 27.6034C25.3463 27.498 25.3176 27.3899 25.2525 27.3052C25.1874 27.2206 25.091 27.1659 24.9855 27.1542C24.8787 27.1412 24.772 27.1711 24.6886 27.2388C22.1557 29.196 19.0355 30.2404 15.8334 30.2026C12.6324 30.1649 9.53687 29.0476 7.05086 27.0305L9.97703 26.6476H9.97573C10.1893 26.6138 10.3364 26.4172 10.3078 26.2023C10.2805 25.9887 10.0877 25.8364 9.87284 25.8585L6.08732 26.3534C5.97403 26.3625 5.87115 26.4185 5.80213 26.5083C5.73311 26.5982 5.70576 26.7128 5.7266 26.8235L6.22276 30.6088C6.25011 30.8263 6.45066 30.98 6.66813 30.9513C6.77361 30.9383 6.86737 30.8836 6.93249 30.7989C6.9963 30.7156 7.02479 30.6102 7.01177 30.506ZM30.5073 24.9872L27.7322 25.3505H27.7309C29.8236 22.7239 30.9749 19.4696 30.9996 16.1113C31.0243 12.753 29.9226 9.48167 27.869 6.82409C27.8052 6.73814 27.7088 6.68215 27.6033 6.66782C27.4978 6.6535 27.391 6.68215 27.3064 6.74726C27.2217 6.81237 27.167 6.90873 27.154 7.01421C27.141 7.12099 27.1723 7.22777 27.2387 7.31111C29.196 9.84391 30.2404 12.964 30.2026 16.1659C30.1648 19.3668 29.0475 22.4622 27.0303 24.9481L26.6475 22.0221V22.0234C26.6136 21.8098 26.417 21.6627 26.2034 21.6913C25.9898 21.7186 25.8361 21.9114 25.8583 22.1262L26.3544 25.9116C26.3636 26.0249 26.4196 26.1278 26.5094 26.1968C26.5993 26.2658 26.7139 26.2931 26.8246 26.2723L30.6101 25.7762C30.8276 25.7488 30.9812 25.5483 30.9526 25.3308C30.9239 25.112 30.7248 24.9585 30.5073 24.9872Z" stroke="#F57A00" stroke-width="0.4" mask="url(#path-1-outside-1_800_5047)"/>
</svg>
