<svg width="30" height="30" viewBox="0 0 30 30" fill="none" xmlns="http://www.w3.org/2000/svg">
<path d="M27.1831 0H2.81694C1.26368 0 0 1.45739 0 3.24874V26.7513C0 28.5426 1.26368 30 2.81694 30H27.1831C28.7363 30 30 28.5426 30 26.7513V3.24874C30 1.45739 28.7363 0 27.1831 0ZM28.804 26.75C28.804 27.7813 28.0773 28.6194 27.1831 28.6194H2.81694C1.92271 28.6194 1.19601 27.7813 1.19601 26.75V8.02141H27.1831V6.64207H1.19601V3.24874C1.19601 2.21744 1.92271 1.37934 2.81694 1.37934H27.1831C28.0773 1.37934 28.804 2.21744 28.804 3.24874V26.75Z" fill="#F57A00"/>
<path d="M3.50982 4.97225C3.89279 4.97225 4.20324 4.61421 4.20324 4.17254C4.20324 3.73088 3.89279 3.37283 3.50982 3.37283C3.12686 3.37283 2.81641 3.73088 2.81641 4.17254C2.81641 4.61421 3.12686 4.97225 3.50982 4.97225Z" fill="#F57A00"/>
<path d="M5.75396 4.97225C6.13693 4.97225 6.44738 4.61421 6.44738 4.17254C6.44738 3.73088 6.13693 3.37283 5.75396 3.37283C5.371 3.37283 5.06055 3.73088 5.06055 4.17254C5.06055 4.61421 5.371 4.97225 5.75396 4.97225Z" fill="#F57A00"/>
<path d="M7.9942 4.97225C8.37716 4.97225 8.68762 4.61421 8.68762 4.17254C8.68762 3.73088 8.37716 3.37283 7.9942 3.37283C7.61123 3.37283 7.30078 3.73088 7.30078 4.17254C7.30078 4.61421 7.61123 4.97225 7.9942 4.97225Z" fill="#F57A00"/>
<path d="M25.4998 17.7753H15.5146V11.2753H16.8016L15.0042 9.32912L13.2069 11.2753H14.4939V17.7753H4.50866V16.2898L2.82227 18.3626L4.50866 20.4355V18.9525H14.4939V25.4526H13.2069L15.0042 27.409L16.8016 25.4526H15.5146V18.9525H25.4998V20.4355L27.1862 18.3626L25.4998 16.2898V17.7753Z" fill="#F57A00"/>
</svg>
