<svg width="30" height="30" viewBox="0 0 30 30" fill="none" xmlns="http://www.w3.org/2000/svg">
<path d="M29.6518 21.3806L25.7367 19.3792C25.4209 19.2178 25.073 19.3464 24.9151 19.6693C24.7572 19.9921 24.8831 20.3477 25.1988 20.5092L28.0088 21.9619L15 28.6444L1.98989 21.9619L4.79989 20.5092C5.11567 20.3477 5.24148 19.9606 5.0836 19.6693C4.92571 19.3464 4.54702 19.2178 4.26205 19.3792L0.347871 21.3806C0.127066 21.4777 0 21.7034 0 21.9619C0 22.2205 0.125822 22.4134 0.347871 22.5433L14.7162 29.9357C14.8112 29.9685 14.9061 30 14.9999 30C15.0949 30 15.1899 29.9672 15.2836 29.9357L29.6519 22.5433C29.8727 22.4462 29.9998 22.2205 29.9998 21.9619C29.9998 21.7034 29.8739 21.5092 29.6518 21.3806Z" fill="#F57A00"/>
<path d="M0.348073 15.5694L14.7164 22.9618C14.8114 22.9946 14.9063 23.0261 15.0001 23.0261C15.0951 23.0261 15.1901 22.9933 15.2838 22.9618L29.6521 15.5694C29.8729 15.4723 30 15.2465 30 14.988C30 14.7623 29.8742 14.5366 29.6521 14.4066L25.7689 12.4053C25.4531 12.2439 25.1052 12.3725 24.9473 12.6953C24.7894 13.0182 24.9153 13.3738 25.2311 13.5352L28.0411 14.988L15 21.6705L1.98989 14.988L4.79989 13.5352C5.11567 13.3738 5.24148 12.9867 5.0836 12.6953C4.92571 12.3725 4.54702 12.2439 4.26205 12.4053L0.347871 14.4066C0.127066 14.5038 0 14.7295 0 14.988C0 15.2138 0.126024 15.4395 0.348073 15.5694Z" fill="#F57A00"/>
<path d="M0.347846 8.59538L14.7162 15.9878C14.8111 16.0206 14.9061 16.0521 14.9999 16.0521C15.0949 16.0521 15.1898 16.0193 15.2836 15.9878L29.6519 8.59538C29.8727 8.49827 29.9998 8.27254 29.9998 8.01401C29.9998 7.75548 29.874 7.56255 29.6519 7.43263L15.2836 0.0728281C15.0936 -0.024276 14.9049 -0.024276 14.7149 0.0728281L0.347871 7.46524C0.127066 7.56235 0 7.78808 0 8.04661C0 8.30514 0.125797 8.46676 0.347846 8.59538ZM14.9997 1.33146L28.0098 8.01394L14.9997 14.6977L1.98962 8.01394L14.9997 1.33146Z" fill="#F57A00"/>
</svg>
