<svg width="189" height="122" viewBox="0 0 189 122" fill="none" xmlns="http://www.w3.org/2000/svg">
<path d="M103.016 88.096C102.376 88.096 101.784 87.992 101.24 87.784C100.704 87.568 100.236 87.268 99.836 86.884C99.444 86.492 99.136 86.036 98.912 85.516C98.688 84.996 98.576 84.424 98.576 83.8C98.576 83.176 98.688 82.604 98.912 82.084C99.136 81.564 99.448 81.112 99.848 80.728C100.248 80.336 100.716 80.036 101.252 79.828C101.796 79.612 102.388 79.504 103.028 79.504C103.676 79.504 104.272 79.616 104.816 79.84C105.368 80.056 105.836 80.38 106.22 80.812L105.44 81.568C105.12 81.232 104.76 80.984 104.36 80.824C103.96 80.656 103.532 80.572 103.076 80.572C102.604 80.572 102.164 80.652 101.756 80.812C101.356 80.972 101.008 81.196 100.712 81.484C100.416 81.772 100.184 82.116 100.016 82.516C99.856 82.908 99.776 83.336 99.776 83.8C99.776 84.264 99.856 84.696 100.016 85.096C100.184 85.488 100.416 85.828 100.712 86.116C101.008 86.404 101.356 86.628 101.756 86.788C102.164 86.948 102.604 87.028 103.076 87.028C103.532 87.028 103.96 86.948 104.36 86.788C104.76 86.62 105.12 86.364 105.44 86.02L106.22 86.776C105.836 87.208 105.368 87.536 104.816 87.76C104.272 87.984 103.672 88.096 103.016 88.096ZM111.548 88.096C110.908 88.096 110.312 87.988 109.76 87.772C109.216 87.556 108.744 87.256 108.344 86.872C107.944 86.48 107.632 86.024 107.408 85.504C107.184 84.984 107.072 84.416 107.072 83.8C107.072 83.184 107.184 82.616 107.408 82.096C107.632 81.576 107.944 81.124 108.344 80.74C108.744 80.348 109.216 80.044 109.76 79.828C110.304 79.612 110.9 79.504 111.548 79.504C112.188 79.504 112.776 79.612 113.312 79.828C113.856 80.036 114.328 80.336 114.728 80.728C115.136 81.112 115.448 81.564 115.664 82.084C115.888 82.604 116 83.176 116 83.8C116 84.424 115.888 84.996 115.664 85.516C115.448 86.036 115.136 86.492 114.728 86.884C114.328 87.268 113.856 87.568 113.312 87.784C112.776 87.992 112.188 88.096 111.548 88.096ZM111.548 87.028C112.012 87.028 112.44 86.948 112.832 86.788C113.232 86.628 113.576 86.404 113.864 86.116C114.16 85.82 114.388 85.476 114.548 85.084C114.716 84.692 114.8 84.264 114.8 83.8C114.8 83.336 114.716 82.908 114.548 82.516C114.388 82.124 114.16 81.784 113.864 81.496C113.576 81.2 113.232 80.972 112.832 80.812C112.44 80.652 112.012 80.572 111.548 80.572C111.076 80.572 110.64 80.652 110.24 80.812C109.848 80.972 109.504 81.2 109.208 81.496C108.912 81.784 108.68 82.124 108.512 82.516C108.352 82.908 108.272 83.336 108.272 83.8C108.272 84.264 108.352 84.692 108.512 85.084C108.68 85.476 108.912 85.82 109.208 86.116C109.504 86.404 109.848 86.628 110.24 86.788C110.64 86.948 111.076 87.028 111.548 87.028ZM117.834 88V79.6H118.818L124.374 86.5H123.858V79.6H125.058V88H124.074L118.518 81.1H119.034V88H117.834ZM130.021 88.096C129.381 88.096 128.769 88 128.185 87.808C127.601 87.608 127.141 87.352 126.805 87.04L127.249 86.104C127.569 86.384 127.977 86.616 128.473 86.8C128.969 86.984 129.485 87.076 130.021 87.076C130.509 87.076 130.905 87.02 131.209 86.908C131.513 86.796 131.737 86.644 131.881 86.452C132.025 86.252 132.097 86.028 132.097 85.78C132.097 85.492 132.001 85.26 131.809 85.084C131.625 84.908 131.381 84.768 131.077 84.664C130.781 84.552 130.453 84.456 130.093 84.376C129.733 84.296 129.369 84.204 129.001 84.1C128.641 83.988 128.309 83.848 128.005 83.68C127.709 83.512 127.469 83.288 127.285 83.008C127.101 82.72 127.009 82.352 127.009 81.904C127.009 81.472 127.121 81.076 127.345 80.716C127.577 80.348 127.929 80.056 128.401 79.84C128.881 79.616 129.489 79.504 130.225 79.504C130.713 79.504 131.197 79.568 131.677 79.696C132.157 79.824 132.573 80.008 132.924 80.248L132.529 81.208C132.169 80.968 131.789 80.796 131.389 80.692C130.989 80.58 130.601 80.524 130.225 80.524C129.753 80.524 129.365 80.584 129.061 80.704C128.757 80.824 128.533 80.984 128.389 81.184C128.253 81.384 128.185 81.608 128.185 81.856C128.185 82.152 128.277 82.388 128.461 82.564C128.653 82.74 128.897 82.88 129.193 82.984C129.497 83.088 129.829 83.184 130.189 83.272C130.549 83.352 130.909 83.444 131.269 83.548C131.637 83.652 131.969 83.788 132.265 83.956C132.569 84.124 132.813 84.348 132.997 84.628C133.181 84.908 133.273 85.268 133.273 85.708C133.273 86.132 133.157 86.528 132.924 86.896C132.693 87.256 132.333 87.548 131.845 87.772C131.365 87.988 130.757 88.096 130.021 88.096ZM138.506 88.096C137.402 88.096 136.534 87.78 135.902 87.148C135.27 86.516 134.954 85.592 134.954 84.376V79.6H136.154V84.328C136.154 85.264 136.358 85.948 136.766 86.38C137.182 86.812 137.766 87.028 138.518 87.028C139.278 87.028 139.862 86.812 140.27 86.38C140.686 85.948 140.894 85.264 140.894 84.328V79.6H142.058V84.376C142.058 85.592 141.742 86.516 141.11 87.148C140.486 87.78 139.618 88.096 138.506 88.096ZM144.518 88V79.6H145.718V86.956H150.266V88H144.518ZM152.526 88V80.644H149.646V79.6H156.594V80.644H153.714V88H152.526ZM156.207 88L160.011 79.6H161.199L165.015 88H163.755L160.359 80.272H160.839L157.443 88H156.207ZM157.827 85.9L158.151 84.94H162.879L163.227 85.9H157.827ZM166.268 88V79.6H167.252L172.808 86.5H172.292V79.6H173.492V88H172.508L166.952 81.1H167.468V88H166.268ZM177.674 88V80.644H174.794V79.6H181.742V80.644H178.862V88H177.674ZM185.392 88.096C184.752 88.096 184.14 88 183.556 87.808C182.972 87.608 182.512 87.352 182.176 87.04L182.62 86.104C182.94 86.384 183.348 86.616 183.844 86.8C184.34 86.984 184.856 87.076 185.392 87.076C185.88 87.076 186.276 87.02 186.58 86.908C186.884 86.796 187.108 86.644 187.252 86.452C187.396 86.252 187.468 86.028 187.468 85.78C187.468 85.492 187.372 85.26 187.18 85.084C186.996 84.908 186.752 84.768 186.448 84.664C186.152 84.552 185.824 84.456 185.464 84.376C185.104 84.296 184.74 84.204 184.372 84.1C184.012 83.988 183.68 83.848 183.376 83.68C183.08 83.512 182.84 83.288 182.656 83.008C182.472 82.72 182.38 82.352 182.38 81.904C182.38 81.472 182.492 81.076 182.716 80.716C182.948 80.348 183.3 80.056 183.772 79.84C184.252 79.616 184.86 79.504 185.596 79.504C186.084 79.504 186.568 79.568 187.048 79.696C187.528 79.824 187.944 80.008 188.296 80.248L187.9 81.208C187.54 80.968 187.16 80.796 186.76 80.692C186.36 80.58 185.972 80.524 185.596 80.524C185.124 80.524 184.736 80.584 184.432 80.704C184.128 80.824 183.904 80.984 183.76 81.184C183.624 81.384 183.556 81.608 183.556 81.856C183.556 82.152 183.648 82.388 183.832 82.564C184.024 82.74 184.268 82.88 184.564 82.984C184.868 83.088 185.2 83.184 185.56 83.272C185.92 83.352 186.28 83.444 186.64 83.548C187.008 83.652 187.34 83.788 187.636 83.956C187.94 84.124 188.184 84.348 188.368 84.628C188.552 84.908 188.644 85.268 188.644 85.708C188.644 86.132 188.528 86.528 188.296 86.896C188.064 87.256 187.704 87.548 187.216 87.772C186.736 87.988 186.128 88.096 185.392 88.096Z" fill="white"/>
<path d="M68.864 49.96V53.992H60.368C59.44 53.992 58.64 54.168 57.968 54.52C57.296 54.872 56.96 55.368 56.96 56.008C56.96 56.392 57.04 56.744 57.2 57.064C57.36 57.352 57.536 57.592 57.728 57.784C57.952 57.976 58.272 58.184 58.688 58.408C59.136 58.6 59.472 58.744 59.696 58.84C59.952 58.904 60.976 59.224 62.768 59.8C64.56 60.376 65.888 60.856 66.752 61.24C67.616 61.624 68.272 62.152 68.72 62.824C69.2 63.464 69.504 64.104 69.632 64.744C69.76 65.352 69.824 65.96 69.824 66.568C69.824 70.856 66.88 73 60.992 73H52.688V68.968H60.992C64 68.968 65.504 68.168 65.504 66.568C65.504 65.8 65.056 65.16 64.16 64.648C63.296 64.136 62.224 63.704 60.944 63.352C59.696 63 58.432 62.6 57.152 62.152C55.904 61.672 54.832 60.92 53.936 59.896C53.072 58.84 52.64 57.544 52.64 56.008C52.64 54.056 53.392 52.568 54.896 51.544C56.4 50.488 58.224 49.96 60.368 49.96H68.864ZM77.27 52.984C79.51 50.648 82.31 49.48 85.67 49.48C87.302 49.48 88.822 49.8 90.23 50.44C91.67 51.048 92.918 51.896 93.974 52.984C95.062 54.072 95.91 55.352 96.518 56.824C97.126 58.264 97.43 59.816 97.43 61.48C97.43 63.144 97.126 64.712 96.518 66.184C95.942 67.624 95.126 68.888 94.07 69.976C93.014 71.064 91.766 71.928 90.326 72.568C88.886 73.176 87.334 73.48 85.67 73.48C83.974 73.48 82.406 73.176 80.966 72.568C79.558 71.928 78.326 71.064 77.27 69.976C76.214 68.888 75.382 67.624 74.774 66.184C74.198 64.712 73.91 63.144 73.91 61.48C73.91 58.088 75.03 55.256 77.27 52.984ZM85.67 53.512C83.43 53.512 81.622 54.248 80.246 55.72C78.902 57.192 78.23 59.112 78.23 61.48C78.23 63.848 78.902 65.768 80.246 67.24C81.622 68.712 83.43 69.448 85.67 69.448C87.942 69.448 89.75 68.712 91.094 67.24C92.438 65.736 93.11 63.816 93.11 61.48C93.11 59.144 92.438 57.24 91.094 55.768C89.75 54.264 87.942 53.512 85.67 53.512ZM102.474 63.88V39.4H106.794V63.88C106.794 65.032 106.922 65.976 107.178 66.712C107.466 67.416 107.898 67.928 108.474 68.248C109.05 68.536 109.61 68.728 110.154 68.824C110.698 68.92 111.418 68.968 112.314 68.968V73C108.73 73 106.186 72.312 104.682 70.936C103.21 69.56 102.474 67.208 102.474 63.88ZM128.227 59.464V63.784C127.011 62.856 125.523 62.392 123.763 62.392C122.259 62.392 121.091 62.696 120.259 63.304C119.427 63.88 119.011 64.712 119.011 65.8C119.011 67.912 120.579 68.968 123.715 68.968H130.051V59.8C130.051 55.928 128.163 53.992 124.387 53.992H116.707V49.96H124.627C127.731 49.96 130.115 50.728 131.779 52.264C133.443 53.8 134.275 56.008 134.275 58.888V73H123.571C120.851 73 118.691 72.392 117.091 71.176C115.491 69.96 114.691 68.184 114.691 65.848C114.691 63.512 115.539 61.736 117.235 60.52C118.931 59.304 121.059 58.696 123.619 58.696C125.059 58.696 126.595 58.952 128.227 59.464ZM138.832 73V59.896C138.832 56.216 139.52 53.672 140.896 52.264C141.568 51.56 142.384 51.032 143.344 50.68C144.304 50.328 145.136 50.12 145.84 50.056C146.576 49.992 147.568 49.96 148.816 49.96H153.04V53.992H147.952C147.312 53.992 146.816 54.008 146.464 54.04C146.112 54.072 145.696 54.184 145.216 54.376C144.736 54.568 144.32 54.872 143.968 55.288C143.36 56.056 143.056 57.592 143.056 59.896V73H138.832ZM162.386 73H158.162V53.992H154.226L156.146 49.96H162.386V73ZM157.97 45.16C157.554 44.616 157.346 44.024 157.346 43.384C157.346 42.744 157.554 42.168 157.97 41.656C158.386 41.112 159.026 40.84 159.89 40.84C160.754 40.84 161.394 41.112 161.81 41.656C162.226 42.168 162.434 42.744 162.434 43.384C162.434 44.024 162.226 44.616 161.81 45.16C161.394 45.672 160.754 45.928 159.89 45.928C159.026 45.928 158.386 45.672 157.97 45.16ZM184.786 49.96V53.992H176.29C175.362 53.992 174.562 54.168 173.89 54.52C173.218 54.872 172.882 55.368 172.882 56.008C172.882 56.392 172.962 56.744 173.122 57.064C173.282 57.352 173.458 57.592 173.65 57.784C173.874 57.976 174.194 58.184 174.61 58.408C175.058 58.6 175.394 58.744 175.618 58.84C175.874 58.904 176.898 59.224 178.69 59.8C180.482 60.376 181.81 60.856 182.674 61.24C183.538 61.624 184.194 62.152 184.642 62.824C185.122 63.464 185.426 64.104 185.554 64.744C185.682 65.352 185.746 65.96 185.746 66.568C185.746 70.856 182.802 73 176.914 73H168.61V68.968H176.914C179.922 68.968 181.426 68.168 181.426 66.568C181.426 65.8 180.978 65.16 180.082 64.648C179.218 64.136 178.146 63.704 176.866 63.352C175.618 63 174.354 62.6 173.074 62.152C171.826 61.672 170.754 60.92 169.858 59.896C168.994 58.84 168.562 57.544 168.562 56.008C168.562 54.056 169.314 52.568 170.818 51.544C172.322 50.488 174.146 49.96 176.29 49.96H184.786Z" fill="white"/>
<mask id="mask0_790_4870" style="mask-type:alpha" maskUnits="userSpaceOnUse" x="0" y="0" width="122" height="122">
<circle cx="61" cy="61" r="60.15" fill="#D9D9D9" stroke="#F57A00" stroke-width="0.3"/>
</mask>
<g mask="url(#mask0_790_4870)">
<path d="M60.0863 25.9545C60.0863 26.1763 60.1957 26.3856 60.3466 26.5365C60.4974 26.6873 60.7067 26.7967 60.9286 26.7967C61.1504 26.7967 61.3597 26.6873 61.5105 26.5365C61.6614 26.3856 61.7708 26.1763 61.7708 25.9545V13.1485C61.7708 12.9266 61.6614 12.7173 61.5105 12.5665C61.3597 12.4156 61.1504 12.3062 60.9286 12.3062C60.7067 12.3062 60.4974 12.4156 60.3466 12.5665C60.1957 12.7173 60.0863 12.9266 60.0863 13.1485V25.9545Z" fill="#F57A00" stroke="#F57A00" stroke-width="0.3"/>
<path d="M60.0863 9.16895C60.0863 9.39079 60.1957 9.60008 60.3466 9.75092C60.4974 9.90176 60.7067 10.0112 60.9286 10.0112C61.1504 10.0112 61.3597 9.90176 61.5105 9.75092C61.6614 9.60008 61.7708 9.39079 61.7708 9.16895V-1.21434C61.7708 -1.43618 61.6614 -1.64546 61.5105 -1.7963C61.3597 -1.94715 61.1504 -2.05656 60.9286 -2.05656C60.7067 -2.05656 60.4974 -1.94715 60.3466 -1.7963C60.1957 -1.64546 60.0863 -1.43618 60.0863 -1.21434V9.16895Z" fill="#F57A00" stroke="#F57A00" stroke-width="0.3"/>
<path d="M53.3261 35.3404L53.33 35.3547L53.3367 35.368C53.4262 35.5472 53.5245 35.7004 53.6583 35.8074C53.7975 35.9188 53.962 35.9701 54.1631 35.9701H54.3361H54.3715L54.4032 35.9543C54.5909 35.8604 54.786 35.7166 54.9124 35.5395C55.0385 35.363 55.106 35.1356 54.9963 34.902L50.8467 19.6865L50.8428 19.6722L50.8361 19.6589C50.7423 19.4712 50.5984 19.2761 50.4214 19.1497C50.2413 19.021 50.0082 18.9534 49.7696 19.0727C49.5819 19.1665 49.3868 19.3104 49.2603 19.4874C49.1343 19.6639 49.0668 19.8913 49.1764 20.1249L53.3261 35.3404Z" fill="#F57A00" stroke="#F57A00" stroke-width="0.3"/>
<path d="M48.1338 16.1294L48.1377 16.144L48.1445 16.1575C48.2341 16.3367 48.3324 16.4899 48.4662 16.5969C48.6053 16.7082 48.7698 16.7596 48.9709 16.7596L49.1439 16.7596H49.1793L49.211 16.7437C49.3987 16.6499 49.5938 16.506 49.7202 16.329C49.8463 16.1526 49.9138 15.9253 49.8043 15.6917L45.4816 -0.388723L45.4776 -0.403333L45.4709 -0.416864C45.377 -0.604566 45.2332 -0.799674 45.0562 -0.926112C44.8761 -1.05475 44.643 -1.12242 44.4044 -1.00311C44.2167 -0.909261 44.0216 -0.765403 43.8951 -0.588391C43.7691 -0.411945 43.7016 -0.184641 43.8111 0.0488986L48.1338 16.1294Z" fill="#F57A00" stroke="#F57A00" stroke-width="0.3"/>
<path d="M47.6273 29.3044L47.6386 29.3303L47.6586 29.3503L47.6634 29.3551C47.8371 29.5289 48.0486 29.7404 48.4569 29.7404L48.6083 29.7404H48.6273L48.6297 29.7404H48.63H48.6301H48.6303L48.6307 29.7404L48.6315 29.7404L48.633 29.7403C48.6526 29.7243 48.6681 29.7073 48.68 29.6903L48.6971 29.7245C48.896 29.6251 49.0543 29.4713 49.1356 29.2817C49.2176 29.0903 49.2162 28.8725 49.112 28.6616C48.5078 27.2804 47.9466 25.8989 47.3845 24.5153L47.3841 24.5144C46.8219 23.1306 46.2589 21.7446 45.6524 20.3584L42.0183 12.0517L42.0184 12.0516L42.015 12.0448C41.9155 11.8458 41.7617 11.6875 41.5722 11.6062C41.3796 11.5237 41.1604 11.5256 40.9485 11.6316C40.7495 11.7311 40.5912 11.8848 40.5099 12.0744C40.4279 12.2659 40.4293 12.4837 40.5335 12.6945C41.1377 14.0757 41.6989 15.4572 42.261 16.8408L42.2614 16.8417C42.8236 18.2255 43.3866 19.6115 43.9931 20.9978L47.6273 29.3044Z" fill="#F57A00" stroke="#F57A00" stroke-width="0.3"/>
<path d="M38.6347 8.36252L38.6461 8.38991L38.6671 8.41089L38.6719 8.41567C38.8456 8.58943 39.0571 8.80093 39.4654 8.80093H39.4664H39.4674H39.4684H39.4694H39.4704H39.4714H39.4724H39.4734H39.4744H39.4753H39.4763H39.4773H39.4782H39.4792H39.4802H39.4811H39.4821H39.483H39.4839H39.4849H39.4858H39.4867H39.4877H39.4886H39.4895H39.4904H39.4913H39.4923H39.4932H39.4941H39.495H39.4958H39.4967H39.4976H39.4985H39.4994H39.5003H39.5011H39.502H39.5029H39.5037H39.5046H39.5054H39.5063H39.5071H39.508H39.5088H39.5096H39.5105H39.5113H39.5121H39.5129H39.5138H39.5146H39.5154H39.5162H39.517H39.5178H39.5186H39.5194H39.5202H39.5209H39.5217H39.5225H39.5233H39.5241H39.5248H39.5256H39.5263H39.5271H39.5279H39.5286H39.5294H39.5301H39.5308H39.5316H39.5323H39.533H39.5338H39.5345H39.5352H39.5359H39.5366H39.5374H39.5381H39.5388H39.5395H39.5402H39.5409H39.5415H39.5422H39.5429H39.5436H39.5443H39.5449H39.5456H39.5463H39.547H39.5476H39.5483H39.5489H39.5496H39.5502H39.5509H39.5515H39.5522H39.5528H39.5534H39.5541H39.5547H39.5553H39.5559H39.5565H39.5572H39.5578H39.5584H39.559H39.5596H39.5602H39.5608H39.5614H39.562H39.5625H39.5631H39.5637H39.5643H39.5649H39.5654H39.566H39.5666H39.5671H39.5677H39.5682H39.5688H39.5694H39.5699H39.5704H39.571H39.5715H39.5721H39.5726H39.5731H39.5737H39.5742H39.5747H39.5752H39.5757H39.5763H39.5768H39.5773H39.5778H39.5783H39.5788H39.5793H39.5798H39.5803H39.5808H39.5812H39.5817H39.5822H39.5827H39.5832H39.5836H39.5841H39.5846H39.585H39.5855H39.586H39.5864H39.5869H39.5873H39.5878H39.5882H39.5887H39.5891H39.5895H39.59H39.5904H39.5908H39.5913H39.5917H39.5921H39.5925H39.5929H39.5934H39.5938H39.5942H39.5946H39.595H39.5954H39.5958H39.5962H39.5966H39.597H39.5974H39.5978H39.5981H39.5985H39.5989H39.5993H39.5997H39.6H39.6004H39.6008H39.6011H39.6015H39.6019H39.6022H39.6026H39.6029H39.6033H39.6036H39.604H39.6043H39.6047H39.605H39.6053H39.6057H39.606H39.6063H39.6067H39.607H39.6073H39.6076H39.608H39.6083H39.6086H39.6089H39.6092H39.6095H39.6098H39.6101H39.6104H39.6107H39.611H39.6113H39.6116H39.6119H39.6122H39.6125H39.6128H39.6131H39.6133H39.6136H39.6139H39.6142H39.6144H39.6147H39.615H39.6153H39.6155H39.6158H39.616H39.6163H39.6166H39.6168H39.6171H39.6173H39.6176H39.6178H39.6181H39.6183H39.6185H39.6188H39.619H39.6192H39.6195H39.6197H39.6199H39.6202H39.6204H39.6206H39.6208H39.6211H39.6213H39.6215H39.6217H39.6219H39.6221H39.6223H39.6225H39.6228H39.623H39.6232H39.6234H39.6236H39.6238H39.6239H39.6241H39.6243H39.6245H39.6247H39.6249H39.6251H39.6253H39.6254H39.6256H39.6258H39.626H39.6262H39.6263H39.6265H39.6267H39.6268H39.627H39.6272H39.6273H39.6275H39.6277H39.6278H39.628H39.6281H39.6283H39.6284H39.6286H39.6287H39.6289H39.629H39.6292H39.6293H39.6295H39.6296H39.6297H39.6299H39.63H39.6301H39.6303H39.6304H39.6305H39.6307H39.6308H39.6309H39.631H39.6312H39.6313H39.6314H39.6315H39.6316H39.6318H39.6319H39.632H39.6321H39.6322H39.6323H39.6324H39.6325H39.6326H39.6328H39.6329H39.633H39.6331H39.6332H39.6333H39.6334H39.6334H39.6335H39.6336H39.6337H39.6338H39.6339H39.634H39.6341H39.6342H39.6343H39.6343H39.6344H39.6345H39.6346H39.6347H39.6347H39.6348H39.6349H39.635H39.6351H39.6351H39.6352H39.6353H39.6353H39.6354H39.6355H39.6355H39.6356H39.6357H39.6357H39.6358H39.6359H39.6359H39.636H39.636H39.6361H39.6362H39.6362H39.6363H39.6363H39.6364H39.6364H39.6365H39.6365H39.6366H39.6366H39.6367H39.6367H39.6368H39.6368H39.6369H39.6369H39.6369H39.637H39.637H39.6371H39.6371H39.6371H39.6372H39.6372H39.6373H39.6373H39.6373H39.6374H39.6374H39.6374H39.6375H39.6375H39.6375H39.6376H39.6376H39.6376H39.6376H39.6377H39.6377H39.6377H39.6378H39.6378H39.6378H39.6378H39.6378H39.6379H39.6379H39.6379H39.6379H39.638H39.638H39.638H39.638H39.638H39.6381H39.6381H39.6381H39.6381H39.6381H39.6381H39.6381H39.6382H39.6382H39.6382H39.6382H39.6382H39.6382H39.6382H39.6382H39.6383H39.6383H39.6383H39.6383H39.6383H39.6383H39.6383H39.6383H39.6383H39.6383H39.6384H39.6384H39.6384H39.6384H39.6384H39.6384H39.6384H39.6384H39.6384L39.6384 8.65094L39.7055 8.7851C39.9045 8.68562 40.0628 8.53183 40.1441 8.34228C40.2259 8.15119 40.2247 7.93387 40.1211 7.72343L39.2577 5.65131L39.2578 5.6513L39.2567 5.64888C38.045 2.87933 36.8353 0.114165 35.7986 -2.6503L35.7959 -2.65767L35.7923 -2.66471C35.6929 -2.86368 35.5391 -3.022 35.3495 -3.10324C35.157 -3.18577 34.9378 -3.18388 34.7258 -3.0779C34.5269 -2.97842 34.3685 -2.82464 34.2873 -2.63508C34.2057 -2.44476 34.2066 -2.22842 34.309 -2.01877C35.3481 0.751522 36.5598 3.52111 37.7696 6.28631L37.7699 6.28708L38.6347 8.36252Z" fill="#F57A00" stroke="#F57A00" stroke-width="0.3"/>
<path d="M54.7022 14.7201L54.7021 14.7201L54.7029 14.7259C54.7625 15.183 54.8221 15.6425 54.882 16.104C55.343 19.6563 55.82 23.3313 56.4323 27.0066C56.4367 27.2312 56.554 27.4001 56.7153 27.5076C56.8752 27.6142 57.0791 27.6626 57.2744 27.6626C57.5709 27.6626 57.7949 27.5611 57.9372 27.3618C58.0724 27.1726 58.1166 26.9184 58.1166 26.6473V26.6349L58.1145 26.6226C57.5023 22.9493 57.0256 19.2759 56.564 15.7194C56.5041 15.2579 56.4444 14.7983 56.3848 14.341L56.385 14.341L56.3836 14.3336C56.2113 13.3856 56.0819 12.4371 55.952 11.4847L55.9518 11.4831C55.8222 10.5324 55.692 9.57784 55.5183 8.62276L55.5145 8.60168L55.5049 8.58251C55.3029 8.17855 54.9001 7.98043 54.5055 7.98043H54.4701L54.4384 7.99627C54.0344 8.19825 53.8363 8.6011 53.8363 8.99571V9.00923L53.8387 9.02254C54.1851 10.9273 54.5299 12.8243 54.7022 14.7201Z" fill="#F57A00" stroke="#F57A00" stroke-width="0.3"/>
<path d="M52.4471 -1.37406L52.4465 -1.37401L52.4489 -1.36081C52.6213 -0.412817 52.7507 0.535697 52.8805 1.48803L52.8808 1.48964C53.0098 2.43624 53.1394 3.38662 53.3119 4.33753C53.3168 4.56159 53.434 4.73005 53.5949 4.83735C53.7548 4.94396 53.9587 4.99233 54.154 4.99233C54.4506 4.99233 54.6745 4.89089 54.8169 4.69157C54.952 4.50233 54.9962 4.24815 54.9962 3.97706V3.96353L54.9938 3.95022C54.8214 3.00224 54.6921 2.05372 54.5622 1.10139L54.562 1.09978C54.4326 0.151005 54.3027 -0.801567 54.1296 -1.75467C54.0428 -2.62127 53.9129 -3.53028 53.7836 -4.43548L53.7833 -4.43731C53.6535 -5.3465 53.5241 -6.25182 53.438 -7.11338L53.4352 -7.14084L53.4229 -7.16553C53.2209 -7.5695 52.8181 -7.76761 52.4235 -7.76761H52.388L52.3564 -7.75178C51.9524 -7.5498 51.7543 -7.14695 51.7543 -6.75234V-6.74486L51.755 -6.73741C51.836 -5.92767 51.9547 -5.11823 52.0753 -4.29532C52.0842 -4.23468 52.0931 -4.17396 52.102 -4.11317C52.2318 -3.22622 52.361 -2.32134 52.4471 -1.37406Z" fill="#F57A00" stroke="#F57A00" stroke-width="0.3"/>
<path d="M42.6835 31.1152C42.7944 31.3073 42.9938 31.4338 43.1998 31.489C43.4059 31.5442 43.6418 31.5344 43.8339 31.4234C44.0261 31.3125 44.1526 31.1131 44.2078 30.9071C44.263 30.701 44.2531 30.4651 44.1422 30.2729L37.7392 19.1826C37.6283 18.9905 37.4289 18.8639 37.2228 18.8087C37.0168 18.7535 36.7808 18.7634 36.5887 18.8743C36.3966 18.9852 36.27 19.1846 36.2148 19.3907C36.1596 19.5967 36.1695 19.8327 36.2804 20.0248C36.2804 20.0248 36.2804 20.0248 36.2804 20.0248L42.6835 31.1152Z" fill="#F57A00" stroke="#F57A00" stroke-width="0.3"/>
<path d="M35.4292 16.8851L35.3645 16.773L35.4292 16.8851C35.6213 16.7742 35.7479 16.5748 35.8031 16.3688C35.8583 16.1627 35.8484 15.9268 35.7375 15.7346L30.5458 6.74245C30.5458 6.74245 30.5458 6.74245 30.5458 6.74245C30.4349 6.55033 30.2355 6.42379 30.0295 6.36858C29.8234 6.31337 29.5875 6.32326 29.3953 6.43418C29.2032 6.5451 29.0767 6.74449 29.0215 6.95055C28.9663 7.1566 28.9761 7.39255 29.0871 7.58467L29.217 7.50967L29.0871 7.58467L34.2787 16.5769C34.3896 16.769 34.589 16.8955 34.7951 16.9507C35.0011 17.0059 35.2371 16.9961 35.4292 16.8851Z" fill="#F57A00" stroke="#F57A00" stroke-width="0.3"/>
<path d="M4.73826 4.31728C4.62263 4.49241 4.52559 4.71455 4.5046 4.93106C4.48369 5.14673 4.53878 5.37716 4.75002 5.52467L12.9118 13.7849L12.9228 13.796L12.9359 13.8046C13.103 13.915 13.2648 13.9985 13.4342 14.0243C13.6103 14.0512 13.7785 14.0134 13.9526 13.9128L14.1025 13.8263L14.1331 13.8086L14.1526 13.7791C14.2683 13.6039 14.3653 13.3818 14.3863 13.1653C14.4072 12.9496 14.3521 12.7192 14.1409 12.5717L5.97907 4.31147L5.96807 4.30035L5.95502 4.29173C5.77989 4.1761 5.55775 4.07906 5.34123 4.05806C5.12094 4.03671 4.88525 4.09465 4.73826 4.31728ZM4.73826 4.31728L4.86288 4.39957L4.73826 4.31728Z" fill="#F57A00" stroke="#F57A00" stroke-width="0.3"/>
<path d="M41.5381 42.6143L41.5486 42.6248L41.561 42.633C41.7282 42.7433 41.8899 42.8269 42.0593 42.8527C42.2355 42.8795 42.4037 42.8417 42.5778 42.7412L42.7276 42.6547L42.7583 42.637L42.7778 42.6074C42.8934 42.4323 42.9905 42.2101 43.0115 41.9936C43.0324 41.7777 42.9771 41.547 42.7653 41.3995L31.5639 30.2974L31.5533 30.2869L31.541 30.2788C31.3658 30.1631 31.1437 30.0661 30.9272 30.0451C30.7069 30.0237 30.4712 30.0817 30.3242 30.3043C30.2086 30.4794 30.1115 30.7016 30.0905 30.9181C30.0696 31.134 30.1248 31.3647 30.3367 31.5122L41.5381 42.6143Z" fill="#F57A00" stroke="#F57A00" stroke-width="0.3"/>
<path d="M15.625 15.6014C15.5093 15.7765 15.4123 15.9986 15.3913 16.2152C15.3704 16.431 15.4256 16.6616 15.6372 16.8091L27.421 28.5738L27.4317 28.5845L27.4443 28.5928C27.6115 28.7032 27.7732 28.7867 27.9426 28.8125C28.1188 28.8394 28.287 28.8016 28.461 28.7011L28.6109 28.6145L28.6416 28.5968L28.6611 28.5673C28.7767 28.3921 28.8738 28.17 28.8947 27.9535C28.9157 27.7377 28.8605 27.5071 28.6489 27.3596L16.8651 15.5948L16.8544 15.5841L16.8417 15.5758C16.6666 15.4602 16.4445 15.3631 16.228 15.3422C16.0077 15.3208 15.772 15.3787 15.625 15.6014ZM15.625 15.6014L15.7495 15.6836L15.625 15.6014Z" fill="#F57A00" stroke="#F57A00" stroke-width="0.3"/>
<path d="M33.61 40.2559L33.5873 40.2391L26.2867 34.8625C25.0683 33.9652 23.8877 33.0464 22.7089 32.1291L22.7081 32.1285C21.5296 31.2113 20.3528 30.2955 19.1389 29.4014C18.9433 29.2709 18.8331 29.083 18.8085 28.8762C18.784 28.6714 18.8443 28.4591 18.9668 28.2734M33.61 40.2559L18.9668 28.2734M33.61 40.2559L33.6374 40.2632L33.6439 40.265C33.8812 40.3286 34.1701 40.4061 34.5237 40.2019L34.6549 40.1262L34.6713 40.1167L34.6733 40.1155L34.6736 40.1153L34.6738 40.1153L34.6739 40.1152L34.6742 40.115L34.6749 40.1146L34.6762 40.1138C34.6855 40.0905 34.6908 40.0683 34.6929 40.0477L34.7238 40.0681C34.8464 39.8825 34.9066 39.6701 34.8822 39.4654C34.8575 39.2585 34.7474 39.0706 34.5517 38.9401M33.61 40.2559L34.5517 38.9401M18.9668 28.2734C19.0974 28.0757 19.2863 27.9644 19.4943 27.9396C19.6991 27.9152 19.9114 27.9754 20.0971 28.098L20.1035 28.1022L20.1034 28.1024L27.4039 33.4791C28.6223 34.3764 29.803 35.2952 30.9818 36.2125L30.9825 36.2131C32.1611 37.1303 33.3379 38.0461 34.5517 38.9401M18.9668 28.2734L34.5517 38.9401" fill="#F57A00" stroke="#F57A00" stroke-width="0.3"/>
<path d="M15.2968 26.6025L15.3204 26.6206L15.3491 26.6282L15.3556 26.63C15.5152 26.6728 15.698 26.7218 15.9082 26.6873L15.8714 26.743L16.0505 26.6515C16.1101 26.6313 16.1717 26.6037 16.2354 26.5669L16.3666 26.4912L16.383 26.4817L16.385 26.4805L16.3853 26.4804L16.3853 26.4803L16.3853 26.4803L16.3854 26.4803L16.3855 26.4803L16.3856 26.4802C16.3932 26.4532 16.3961 26.4287 16.3957 26.4069L16.4355 26.4331C16.558 26.2475 16.6183 26.0351 16.5939 25.8303C16.5692 25.6239 16.4595 25.4363 16.2646 25.3059L14.4808 23.943L14.4808 23.943L14.4787 23.9415C12.0446 22.1488 9.61433 20.359 7.33432 18.4832L7.32824 18.4782L7.32167 18.4739C7.13604 18.3513 6.92369 18.2911 6.71892 18.3155C6.5109 18.3403 6.32201 18.4515 6.19144 18.6493C6.06888 18.8349 6.00865 19.0473 6.03307 19.252C6.0576 19.4576 6.16654 19.6446 6.36001 19.7749C8.64504 21.6545 11.0791 23.4471 13.5094 25.2369L13.5102 25.2375L15.2968 26.6025Z" fill="#F57A00" stroke="#F57A00" stroke-width="0.3"/>
<path d="M32.4271 24.0672L32.427 24.0672L32.4306 24.0719C32.7108 24.438 32.9922 24.8061 33.2749 25.1759C35.4502 28.0217 37.7008 30.9658 40.0687 33.8425C40.1848 34.0349 40.3709 34.1225 40.5642 34.1349C40.756 34.1473 40.9568 34.0872 41.1259 33.9896C41.3828 33.8413 41.526 33.6415 41.5496 33.3977C41.572 33.1662 41.4832 32.924 41.3477 32.6892L41.3415 32.6785L41.3336 32.6689C38.9667 29.7938 36.7172 26.851 34.5392 24.0018C34.2565 23.632 33.9751 23.2638 33.6947 22.8976L33.6949 22.8975L33.69 22.8917C33.0668 22.1569 32.4805 21.4002 31.8918 20.6403L31.8908 20.639C31.3032 19.8805 30.7132 19.1189 30.0853 18.3786L30.0714 18.3623L30.0535 18.3505C29.6766 18.1016 29.2287 18.1315 28.8869 18.3288L28.8563 18.3465L28.8368 18.3761C28.5879 18.753 28.6178 19.2009 28.8151 19.5426L28.8218 19.5543L28.8306 19.5647C30.0829 21.0411 31.33 22.5115 32.4271 24.0672Z" fill="#F57A00" stroke="#F57A00" stroke-width="0.3"/>
<path d="M22.405 11.2543L22.4045 11.2546L22.4132 11.2649C23.0365 11.9997 23.6227 12.7564 24.2114 13.5162L24.2124 13.5175C24.7975 14.2728 25.3849 15.031 26.0097 15.7683C26.1259 15.9599 26.3117 16.0472 26.5047 16.0596C26.6965 16.072 26.8973 16.012 27.0664 15.9143C27.3232 15.766 27.4664 15.5662 27.4901 15.3224C27.5125 15.0909 27.4237 14.8487 27.2881 14.614L27.2814 14.6022L27.2726 14.5919C26.6494 13.8571 26.0631 13.1004 25.4744 12.3406L25.4734 12.3393C24.887 11.5823 24.2982 10.8223 23.6718 10.0835C23.1633 9.37637 22.5963 8.65407 22.0317 7.9348L22.0306 7.93334C21.4635 7.21091 20.8988 6.49153 20.3934 5.78848L20.3773 5.76607L20.3543 5.75086C19.9774 5.502 19.5295 5.53185 19.1877 5.72916L19.1571 5.74686L19.1375 5.77641C18.8887 6.15332 18.9185 6.60125 19.1158 6.94299L19.1196 6.94947L19.124 6.95555C19.599 7.61632 20.1064 8.25798 20.6223 8.91032C20.6604 8.9584 20.6984 9.00653 20.7365 9.05474C21.2924 9.75796 21.8568 10.477 22.405 11.2543Z" fill="#F57A00" stroke="#F57A00" stroke-width="0.3"/>
<path d="M30.181 44.2807C30.3731 44.3916 30.6091 44.4015 30.8151 44.3463C31.0212 44.2911 31.2206 44.1646 31.3315 43.9724C31.4424 43.7803 31.4523 43.5444 31.3971 43.3383C31.3419 43.1323 31.2154 42.9329 31.0232 42.8219L19.9329 36.4189L19.8579 36.5488L19.9329 36.4189C19.7408 36.308 19.5048 36.2981 19.2988 36.3533C19.0927 36.4085 18.8933 36.5351 18.7824 36.7272C18.6715 36.9193 18.6616 37.1553 18.7168 37.3613C18.772 37.5674 18.8985 37.7668 19.0907 37.8777C19.0907 37.8777 19.0907 37.8777 19.0907 37.8777L30.181 44.2807Z" fill="#F57A00" stroke="#F57A00" stroke-width="0.3"/>
<path d="M7.49733 29.239L7.42233 29.3689L7.49733 29.239C7.30521 29.1281 7.06926 29.1182 6.8632 29.1734C6.65715 29.2286 6.45776 29.3552 6.34684 29.5473C6.23592 29.7394 6.22602 29.9754 6.28124 30.1814C6.33645 30.3875 6.46299 30.5869 6.65511 30.6978C6.65511 30.6978 6.65511 30.6978 6.65511 30.6978L15.6473 35.8894C15.8394 36.0004 16.0754 36.0102 16.2814 35.955C16.4875 35.8998 16.6869 35.7733 16.7978 35.5812C16.9087 35.389 16.9186 35.1531 16.8634 34.947C16.8082 34.741 16.6816 34.5416 16.4895 34.4307L7.49733 29.239Z" fill="#F57A00" stroke="#F57A00" stroke-width="0.3"/>
<path d="M34.9499 54.8135L34.9643 54.8173L34.9791 54.8182C35.179 54.8302 35.3609 54.8217 35.5205 54.7594C35.6865 54.6945 35.8132 54.5777 35.9137 54.4036L36.0002 54.2537L36.0179 54.2231L36.02 54.1877C36.0326 53.9782 36.0056 53.7373 35.9155 53.5393C35.8257 53.3419 35.6625 53.1697 35.4053 53.1479L20.1535 49.1339L20.1392 49.1301L20.1243 49.1292C19.9149 49.1166 19.674 49.1437 19.476 49.2338C19.2745 49.3254 19.0994 49.4934 19.0834 49.7597C19.0708 49.9692 19.0978 50.2101 19.1879 50.4081C19.2777 50.6056 19.4409 50.7777 19.6981 50.7995L34.9499 54.8135Z" fill="#F57A00" stroke="#F57A00" stroke-width="0.3"/>
<path d="M15.7052 49.7065L15.7198 49.7104L15.7349 49.7113C15.9348 49.7233 16.1167 49.7148 16.2763 49.6525C16.4423 49.5876 16.569 49.4708 16.6695 49.2967L16.756 49.1468L16.7737 49.1162L16.7758 49.0808C16.7884 48.8714 16.7614 48.6305 16.6713 48.4325C16.5815 48.2351 16.4184 48.063 16.1614 48.041L0.0739834 43.7444L0.0593681 43.7405L0.0442676 43.7396C-0.165212 43.727 -0.40611 43.754 -0.604115 43.8441C-0.805571 43.9358 -0.980714 44.1038 -0.996699 44.3701C-1.00927 44.5796 -0.982242 44.8205 -0.892163 45.0185C-0.802372 45.2158 -0.639274 45.3879 -0.382268 45.4099L15.7052 49.7065Z" fill="#F57A00" stroke="#F57A00" stroke-width="0.3"/>
<path d="M26.8695 56.7363L26.8976 56.7395L26.925 56.7321L26.9315 56.7304C27.1689 56.6668 27.4578 56.5894 27.6619 56.2358L27.7376 56.1047L27.7471 56.0883L27.7483 56.0862L27.7485 56.0859L27.7486 56.0857L27.7488 56.0854L27.7491 56.0848L27.7497 56.0837L27.751 56.0814C27.7503 56.0583 27.7466 56.0371 27.7409 56.0183L27.7683 56.0199C27.7816 55.7979 27.7276 55.5839 27.604 55.4188C27.4793 55.252 27.2899 55.1443 27.0553 55.1291C25.557 54.9618 24.08 54.7571 22.6007 54.552L22.5998 54.5519C21.1203 54.3469 19.6384 54.1415 18.1346 53.9736L9.12378 52.9675L9.1238 52.9673L9.11613 52.9669C8.89407 52.9536 8.68007 53.0076 8.51494 53.1311C8.34719 53.2566 8.23923 53.4474 8.22503 53.6839C8.2117 53.906 8.26572 54.12 8.38926 54.2851C8.51404 54.4519 8.70336 54.5596 8.93805 54.5748C10.4363 54.7421 11.9133 54.9468 13.3926 55.1518L13.3936 55.152C14.8732 55.357 16.3549 55.5624 17.8587 55.7303L26.8695 56.7363Z" fill="#F57A00" stroke="#F57A00" stroke-width="0.3"/>
<path d="M4.26306 54.0634L4.23363 54.0596L2.00387 53.7708L2.00345 53.7707C-0.996313 53.4358 -4.00083 53.1004 -6.91967 52.6151C-7.15241 52.599 -7.34022 52.4916 -7.46426 52.3258C-7.5878 52.1606 -7.64181 51.9466 -7.62849 51.7246M4.26306 54.0634L-7.48531 51.7332L-7.62849 51.7246M4.26306 54.0634L4.29173 54.0557M4.26306 54.0634L4.29173 54.0557M-7.62849 51.7246C-7.61429 51.488 -7.50633 51.2973 -7.33858 51.1718C-7.17345 51.0482 -6.95944 50.9942 -6.73739 51.0075L-6.72953 51.008L-6.72177 51.0093C-3.80934 51.4937 -0.809783 51.8287 2.19456 52.1641L2.19718 52.1644L2.19718 52.1644L4.42337 52.4528C4.65742 52.4683 4.84624 52.5759 4.97079 52.7423C5.09433 52.9075 5.14834 53.1215 5.13501 53.3435L5.05378 53.3387C5.04677 53.3515 5.02441 53.3545 4.98528 53.3345M-7.62849 51.7246L4.98528 53.3345M4.29173 54.0557L4.29824 54.054C4.53558 53.9904 4.8245 53.913 5.02866 53.5594L5.10437 53.4283L5.11383 53.4119L5.11501 53.4098C5.04022 53.4308 4.98468 53.4164 4.95122 53.3935L4.96941 53.362M4.29173 54.0557L4.96941 53.362M4.98528 53.3345L5.11887 53.4028L4.96941 53.362M4.98528 53.3345L4.96941 53.362" fill="#F57A00" stroke="#F57A00" stroke-width="0.3"/>
<path d="M17.7835 43.309L17.7834 43.3091L17.7888 43.3114C18.2145 43.4883 18.6423 43.6664 19.0719 43.8453C22.3788 45.2221 25.7999 46.6466 29.2889 47.954C29.4857 48.0625 29.6906 48.0453 29.8643 47.9594C30.0366 47.8742 30.1804 47.7218 30.2781 47.5527L30.1482 47.4777L30.2781 47.5527C30.4263 47.2959 30.4504 47.0512 30.349 46.8283C30.2527 46.6166 30.0547 46.4512 29.8199 46.3157L29.8092 46.3095L29.7975 46.3051C26.3102 44.9986 22.8905 43.5748 19.5797 42.1963C19.1501 42.0174 18.7223 41.8393 18.2964 41.6623L18.2965 41.6621L18.2894 41.6596C17.3823 41.3349 16.4961 40.9727 15.6065 40.609L15.6049 40.6083C14.7168 40.2452 13.825 39.8807 12.9111 39.5536L12.8909 39.5463L12.8695 39.545C12.4187 39.518 12.0457 39.7678 11.8484 40.1095L11.8307 40.1402L11.8286 40.1756C11.8015 40.6264 12.0513 40.9994 12.3931 41.1967L12.4048 41.2035L12.4175 41.208C14.2402 41.8605 16.0555 42.5104 17.7835 43.309Z" fill="#F57A00" stroke="#F57A00" stroke-width="0.3"/>
<path d="M2.70384 37.211L2.70359 37.2116L2.71622 37.2161C3.62338 37.5408 4.5095 37.9031 5.39918 38.2668L5.40058 38.2673C6.28493 38.6289 7.17282 38.9918 8.08262 39.3179C8.27908 39.4258 8.48357 39.4085 8.65696 39.3228C8.82925 39.2376 8.97308 39.0852 9.07074 38.916C9.21902 38.6592 9.24313 38.4146 9.1417 38.1916C9.0454 37.9799 8.84737 37.8146 8.61259 37.679L8.60088 37.6723L8.58814 37.6677C7.68098 37.343 6.79486 36.9808 5.90518 36.6171L5.9037 36.6165C5.01734 36.2541 4.12744 35.8903 3.21547 35.5637C2.42153 35.2056 1.56935 34.8635 0.720758 34.5229L0.719085 34.5222C-0.133236 34.1801 -0.981918 33.8395 -1.77112 33.4833L-1.79628 33.4719L-1.82384 33.4703C-2.27467 33.4432 -2.64767 33.693 -2.84498 34.0348L-2.86268 34.0654L-2.8648 34.1008C-2.89187 34.5516 -2.64205 34.9246 -2.30031 35.1219L-2.29383 35.1257L-2.28701 35.1287C-1.54525 35.4635 -0.784923 35.7655 -0.0119464 36.0724C0.045012 36.0951 0.102039 36.1177 0.159132 36.1404C0.99215 36.4715 1.84042 36.812 2.70384 37.211Z" fill="#F57A00" stroke="#F57A00" stroke-width="0.3"/>
<path d="M25.9612 61.9272C26.183 61.9272 26.3923 61.8178 26.5431 61.667C26.694 61.5161 26.8034 61.3068 26.8034 61.085C26.8034 60.8631 26.694 60.6539 26.5431 60.503C26.3923 60.3522 26.183 60.2428 25.9612 60.2428H13.1551C12.9333 60.2428 12.724 60.3522 12.5731 60.503C12.4223 60.6539 12.3129 60.8631 12.3129 61.085C12.3129 61.3068 12.4223 61.5161 12.5731 61.667C12.724 61.8178 12.9333 61.9272 13.1551 61.9272H25.9612Z" fill="#F57A00" stroke="#F57A00" stroke-width="0.3"/>
<path d="M9.18488 61.9272C9.40672 61.9272 9.61601 61.8178 9.76685 61.667C9.91769 61.5161 10.0271 61.3068 10.0271 61.085C10.0271 60.8631 9.91769 60.6539 9.76685 60.503C9.61601 60.3522 9.40672 60.2428 9.18488 60.2428H-1.19841C-1.42025 60.2428 -1.62953 60.3522 -1.78037 60.503C-1.93122 60.6539 -2.04063 60.8631 -2.04063 61.085C-2.04063 61.3068 -1.93122 61.5161 -1.78037 61.667C-1.62953 61.8178 -1.42025 61.9272 -1.19841 61.9272H9.18488Z" fill="#F57A00" stroke="#F57A00" stroke-width="0.3"/>
<path d="M35.3612 68.6708L35.3756 68.6669L35.3889 68.6603C35.568 68.5707 35.7212 68.4724 35.8283 68.3386C35.9396 68.1995 35.9909 68.0349 35.9909 67.8339V67.6608V67.6254L35.9751 67.5938C35.8812 67.4061 35.7374 67.211 35.5604 67.0845C35.3839 66.9584 35.1565 66.8909 34.9228 67.0006L19.7074 71.1503L19.693 71.1542L19.6798 71.1608C19.4921 71.2547 19.2969 71.3985 19.1705 71.5756C19.0419 71.7557 18.9742 71.9887 19.0935 72.2274C19.1874 72.4151 19.3312 72.6102 19.5082 72.7366C19.6847 72.8627 19.9121 72.9302 20.1458 72.8205L35.3612 68.6708Z" fill="#F57A00" stroke="#F57A00" stroke-width="0.3"/>
<path d="M16.1381 73.8648L16.1527 73.8609L16.1662 73.8541C16.3454 73.7645 16.4986 73.6662 16.6056 73.5324C16.717 73.3933 16.7683 73.2288 16.7683 73.0277L16.7683 72.8547V72.8193L16.7525 72.7876C16.6586 72.5999 16.5148 72.4048 16.3378 72.2784C16.1613 72.1523 15.934 72.0848 15.7005 72.1943L-0.379995 76.517L-0.394605 76.521L-0.408136 76.5277C-0.595838 76.6216 -0.790946 76.7654 -0.917384 76.9424C-1.04603 77.1225 -1.11369 77.3556 -0.994384 77.5942C-0.900533 77.7819 -0.756675 77.9771 -0.579663 78.1035C-0.403216 78.2295 -0.175912 78.297 0.0576283 78.1875L16.1381 73.8648Z" fill="#F57A00" stroke="#F57A00" stroke-width="0.3"/>
<path d="M29.3175 74.3756L29.3434 74.3643L29.3634 74.3442L29.3682 74.3395C29.542 74.1657 29.7535 73.9543 29.7535 73.546L29.7535 73.3945V73.3756L29.7535 73.3732V73.3729V73.3727V73.3725L29.7535 73.3722L29.7535 73.3714L29.7534 73.3699C29.7374 73.3502 29.7205 73.3348 29.7035 73.3229L29.7376 73.3058C29.6382 73.1069 29.4844 72.9485 29.2948 72.8673C29.1034 72.7852 28.8856 72.7866 28.6747 72.8908C27.2935 73.495 25.912 74.0563 24.5284 74.6184L24.5275 74.6187C23.1437 75.1809 21.7577 75.744 20.3714 76.3505L12.0648 79.9846L12.0647 79.9844L12.0579 79.9879C11.8589 80.0874 11.7006 80.2411 11.6193 80.4307C11.5368 80.6233 11.5387 80.8424 11.6447 81.0544C11.7441 81.2534 11.8979 81.4117 12.0875 81.4929C12.2789 81.575 12.4967 81.5736 12.7076 81.4694C14.0888 80.8652 15.4703 80.3039 16.8539 79.7418L16.8548 79.7415C18.2386 79.1793 19.6246 78.6162 21.0109 78.0098L29.3175 74.3756Z" fill="#F57A00" stroke="#F57A00" stroke-width="0.3"/>
<path d="M8.36633 83.3742L8.39372 83.3628L8.41471 83.3418L8.41949 83.3371C8.59324 83.1633 8.80475 82.9519 8.80475 82.5435V82.5425V82.5415V82.5405V82.5395V82.5385V82.5375V82.5365V82.5356V82.5346V82.5336V82.5326V82.5317V82.5307V82.5297V82.5288V82.5278V82.5269V82.5259V82.525V82.5241V82.5231V82.5222V82.5213V82.5203V82.5194V82.5185V82.5176V82.5167V82.5158V82.5149V82.514V82.5131V82.5122V82.5113V82.5104V82.5096V82.5087V82.5078V82.5069V82.5061V82.5052V82.5044V82.5035V82.5027V82.5018V82.501V82.5001V82.4993V82.4985V82.4976V82.4968V82.496V82.4952V82.4944V82.4936V82.4927V82.4919V82.4911V82.4904V82.4896V82.4888V82.488V82.4872V82.4864V82.4857V82.4849V82.4841V82.4833V82.4826V82.4818V82.4811V82.4803V82.4796V82.4788V82.4781V82.4774V82.4766V82.4759V82.4752V82.4744V82.4737V82.473V82.4723V82.4716V82.4709V82.4702V82.4695V82.4688V82.4681V82.4674V82.4667V82.466V82.4653V82.4647V82.464V82.4633V82.4626V82.462V82.4613V82.4607V82.46V82.4594V82.4587V82.4581V82.4574V82.4568V82.4561V82.4555V82.4549V82.4543V82.4536V82.453V82.4524V82.4518V82.4512V82.4506V82.45V82.4494V82.4488V82.4482V82.4476V82.447V82.4464V82.4458V82.4452V82.4446V82.4441V82.4435V82.4429V82.4424V82.4418V82.4412V82.4407V82.4401V82.4396V82.439V82.4385V82.4379V82.4374V82.4369V82.4363V82.4358V82.4353V82.4347V82.4342V82.4337V82.4332V82.4327V82.4322V82.4317V82.4312V82.4306V82.4301V82.4297V82.4292V82.4287V82.4282V82.4277V82.4272V82.4267V82.4262V82.4258V82.4253V82.4248V82.4244V82.4239V82.4234V82.423V82.4225V82.4221V82.4216V82.4212V82.4207V82.4203V82.4198V82.4194V82.419V82.4185V82.4181V82.4177V82.4173V82.4168V82.4164V82.416V82.4156V82.4152V82.4148V82.4143V82.4139V82.4135V82.4131V82.4127V82.4123V82.412V82.4116V82.4112V82.4108V82.4104V82.41V82.4097V82.4093V82.4089V82.4085V82.4082V82.4078V82.4074V82.4071V82.4067V82.4064V82.406V82.4057V82.4053V82.405V82.4046V82.4043V82.4039V82.4036V82.4033V82.4029V82.4026V82.4023V82.4019V82.4016V82.4013V82.401V82.4007V82.4003V82.4V82.3997V82.3994V82.3991V82.3988V82.3985V82.3982V82.3979V82.3976V82.3973V82.397V82.3967V82.3964V82.3962V82.3959V82.3956V82.3953V82.395V82.3948V82.3945V82.3942V82.3939V82.3937V82.3934V82.3932V82.3929V82.3926V82.3924V82.3921V82.3919V82.3916V82.3914V82.3911V82.3909V82.3906V82.3904V82.3902V82.3899V82.3897V82.3895V82.3892V82.389V82.3888V82.3885V82.3883V82.3881V82.3879V82.3877V82.3874V82.3872V82.387V82.3868V82.3866V82.3864V82.3862V82.386V82.3858V82.3856V82.3854V82.3852V82.385V82.3848V82.3846V82.3844V82.3842V82.384V82.3839V82.3837V82.3835V82.3833V82.3831V82.383V82.3828V82.3826V82.3824V82.3823V82.3821V82.3819V82.3818V82.3816V82.3814V82.3813V82.3811V82.381V82.3808V82.3807V82.3805V82.3804V82.3802V82.3801V82.3799V82.3798V82.3796V82.3795V82.3793V82.3792V82.3791V82.3789V82.3788V82.3787V82.3785V82.3784V82.3783V82.3781V82.378V82.3779V82.3778V82.3776V82.3775V82.3774V82.3773V82.3772V82.3771V82.3769V82.3768V82.3767V82.3766V82.3765V82.3764V82.3763V82.3762V82.3761V82.376V82.3759V82.3758V82.3757V82.3756V82.3755V82.3754V82.3753V82.3752V82.3751V82.375V82.3749V82.3748V82.3748V82.3747V82.3746V82.3745V82.3744V82.3743V82.3743V82.3742V82.3741V82.374V82.374V82.3739V82.3738V82.3737V82.3737V82.3736V82.3735V82.3735V82.3734V82.3733V82.3733V82.3732V82.3731V82.3731V82.373V82.373V82.3729V82.3728V82.3728V82.3727V82.3727V82.3726V82.3726V82.3725V82.3725V82.3724V82.3724V82.3723V82.3723V82.3722V82.3722V82.3721V82.3721V82.372V82.372V82.3719V82.3719V82.3719V82.3718V82.3718V82.3717V82.3717V82.3717V82.3716V82.3716V82.3716V82.3715V82.3715V82.3715V82.3714V82.3714V82.3714V82.3713V82.3713V82.3713V82.3713V82.3712V82.3712V82.3712V82.3712V82.3711V82.3711V82.3711V82.3711V82.371V82.371V82.371V82.371V82.371V82.3709V82.3709V82.3709V82.3709V82.3709V82.3709V82.3708V82.3708V82.3708V82.3708V82.3708V82.3708V82.3707V82.3707V82.3707V82.3707V82.3707V82.3707V82.3707V82.3707V82.3707V82.3706V82.3706V82.3706V82.3706V82.3706V82.3706V82.3706V82.3706V82.3706V82.3706V82.3706V82.3705V82.3705V82.3705V82.3705V82.3705L8.80473 82.3705L8.65475 82.3705L8.78891 82.3034C8.68943 82.1044 8.53565 81.9461 8.3461 81.8649C8.15501 81.783 7.93768 81.7842 7.72724 81.8878L5.65512 82.7512L5.65512 82.7512L5.65269 82.7522C2.88314 83.9639 0.117979 85.1736 -2.64648 86.2103L-2.65385 86.2131L-2.66089 86.2166C-2.85986 86.3161 -3.01819 86.4699 -3.09943 86.6594C-3.18195 86.852 -3.18006 87.0712 -3.07409 87.2831C-2.9746 87.4821 -2.82082 87.6404 -2.63127 87.7216C-2.44095 87.8032 -2.2246 87.8023 -2.01495 87.7C0.755125 86.6609 3.5245 85.4493 6.28949 84.2396L6.29092 84.239L8.36633 83.3742Z" fill="#F57A00" stroke="#F57A00" stroke-width="0.3"/>
<path d="M14.7303 67.2912L14.7303 67.2913L14.7361 67.2905C15.1932 67.2309 15.6527 67.1713 16.1142 67.1114C19.6665 66.6503 23.3415 66.1734 27.0168 65.5611C27.2414 65.5567 27.4103 65.4394 27.5178 65.2781C27.6244 65.1182 27.6728 64.9143 27.6728 64.719C27.6728 64.4225 27.5713 64.1985 27.372 64.0562C27.1828 63.921 26.9286 63.8768 26.6575 63.8768H26.6451L26.6328 63.8789C22.9595 64.4911 19.2861 64.9678 15.7296 65.4294C15.2681 65.4893 14.8085 65.549 14.3512 65.6086L14.3512 65.6084L14.3438 65.6098C13.3958 65.7821 12.4473 65.9115 11.4949 66.0414L11.4933 66.0416C10.5426 66.1712 9.58802 66.3014 8.63296 66.475L8.61187 66.4789L8.59271 66.4885C8.18874 66.6904 7.99062 67.0933 7.99062 67.4879V67.5233L8.00646 67.555C8.20844 67.959 8.61129 68.1571 9.0059 68.1571H9.01942L9.03273 68.1546C10.9375 67.8083 12.8345 67.4635 14.7303 67.2912Z" fill="#F57A00" stroke="#F57A00" stroke-width="0.3"/>
<path d="M-1.38145 69.5423L-1.38139 69.5429L-1.36819 69.5405C-0.420202 69.3682 0.528312 69.2388 1.48065 69.1089L1.48224 69.1087C2.42884 68.9796 3.37923 68.85 4.33014 68.6775C4.55421 68.6727 4.72267 68.5555 4.82996 68.3946C4.93657 68.2346 4.98495 68.0308 4.98495 67.8354C4.98495 67.5389 4.8835 67.315 4.68418 67.1726C4.49494 67.0374 4.24076 66.9932 3.96967 66.9932L3.95615 66.9932L3.94284 66.9957C2.99485 67.168 2.04634 67.2974 1.094 67.4272L1.09239 67.4275C0.14362 67.5568 -0.808951 67.6867 -1.76205 67.8599C-2.62866 67.9467 -3.53767 68.0766 -4.44286 68.2059L-4.4447 68.2061C-5.35389 68.336 -6.2592 68.4653 -7.12076 68.5515L-7.14823 68.5542L-7.17292 68.5666C-7.57688 68.7685 -7.775 69.1714 -7.775 69.566V69.6014L-7.75916 69.6331C-7.55718 70.0371 -7.15433 70.2352 -6.75973 70.2352H-6.75224L-6.7448 70.2344C-5.93505 70.1534 -5.12561 70.0348 -4.30271 69.9142C-4.24206 69.9053 -4.18135 69.8964 -4.12055 69.8875C-3.2336 69.7577 -2.32872 69.6284 -1.38145 69.5423Z" fill="#F57A00" stroke="#F57A00" stroke-width="0.3"/>
<path d="M18.8957 85.4209L18.8957 85.4209C19.0066 85.613 19.206 85.7396 19.412 85.7948C19.6181 85.85 19.854 85.8401 20.0462 85.7292L31.1365 79.3261C31.3286 79.2152 31.4552 79.0158 31.5104 78.8098C31.5656 78.6037 31.5557 78.3678 31.4448 78.1756C31.3339 77.9835 31.1345 77.857 30.9284 77.8018C30.7224 77.7466 30.4864 77.7565 30.2943 77.8674L19.2039 84.2704C19.0118 84.3813 18.8853 84.5807 18.8301 84.7868C18.7749 84.9928 18.7847 85.2288 18.8957 85.4209Z" fill="#F57A00" stroke="#F57A00" stroke-width="0.3"/>
<path d="M7.51803 92.7802L7.59303 92.9101C7.40091 93.021 7.16496 93.0309 6.95891 92.9757C6.75285 92.9205 6.55346 92.7939 6.44254 92.6018L7.51803 92.7802ZM7.51803 92.7802L7.59303 92.9101L16.5852 87.7185C16.7773 87.6075 16.9039 87.4081 16.9591 87.2021C17.0143 86.996 17.0044 86.7601 16.8935 86.568C16.7826 86.3758 16.5832 86.2493 16.3771 86.1941C16.1711 86.1389 15.9351 86.1488 15.743 86.2597L15.818 86.3896L7.51803 92.7802Z" fill="#F57A00" stroke="#F57A00" stroke-width="0.3"/>
<path d="M13.7998 109.108L13.8109 109.097L13.8195 109.084C13.9299 108.917 14.0134 108.755 14.0392 108.586C14.0661 108.41 14.0282 108.242 13.9277 108.068L13.8412 107.918L13.8235 107.887L13.7939 107.867C13.6188 107.752 13.3967 107.655 13.1802 107.634C12.9645 107.613 12.7341 107.668 12.5866 107.879L4.32637 116.041L4.31524 116.052L4.30662 116.065C4.19099 116.24 4.09395 116.462 4.07296 116.679C4.0516 116.899 4.10954 117.135 4.33217 117.282L4.33218 117.282C4.5073 117.397 4.72944 117.495 4.94596 117.516C5.16162 117.536 5.39206 117.481 5.53957 117.27L13.7998 109.108Z" fill="#F57A00" stroke="#F57A00" stroke-width="0.3"/>
<path d="M42.6324 80.4731L42.6429 80.4626L42.6511 80.4502C42.7614 80.283 42.845 80.1213 42.8708 79.9519C42.8976 79.7757 42.8598 79.6076 42.7593 79.4335L42.6294 79.5085L42.7593 79.4335L42.6728 79.2836L42.6551 79.2529L42.6255 79.2334C42.4504 79.1178 42.2282 79.0208 42.0117 78.9998C41.7958 78.9788 41.5651 79.0341 41.4176 79.2459L30.3155 90.4473L30.305 90.4579L30.2969 90.4703C30.1812 90.6454 30.0842 90.8675 30.0632 91.0841C30.0418 91.3044 30.0998 91.54 30.3224 91.687L30.3224 91.687C30.4975 91.8027 30.7197 91.8997 30.9362 91.9207C31.1521 91.9416 31.3828 91.8864 31.5303 91.6746L42.6324 80.4731Z" fill="#F57A00" stroke="#F57A00" stroke-width="0.3"/>
<path d="M28.5907 94.5646L28.58 94.5753L16.8153 106.359C16.6678 106.571 16.4372 106.626 16.2213 106.605C16.0048 106.584 15.7827 106.487 15.6076 106.371M28.5907 94.5646L15.6076 106.371M28.5907 94.5646L28.599 94.5519M28.5907 94.5646L28.599 94.5519M15.6076 106.371C15.6076 106.371 15.6076 106.371 15.6076 106.371L15.6902 106.246L15.6076 106.371ZM28.599 94.5519C28.7094 94.3848 28.7929 94.223 28.8187 94.0537C28.8456 93.8775 28.8078 93.7093 28.7072 93.5352L28.6207 93.3854L28.603 93.3547M28.599 94.5519L28.603 93.3547M28.603 93.3547L28.5735 93.3352M28.603 93.3547L28.5735 93.3352M28.5735 93.3352C28.3983 93.2196 28.1762 93.1225 27.9597 93.1015C27.7439 93.0806 27.5133 93.1358 27.3658 93.3474L28.5735 93.3352Z" fill="#F57A00" stroke="#F57A00" stroke-width="0.3"/>
<path d="M40.0679 87.3241L40.0873 87.2946C39.9017 87.172 39.6894 87.1118 39.4846 87.1362C39.2777 87.1609 39.0898 87.271 38.9593 87.4667C38.0653 88.6805 37.1495 89.8573 36.2323 91.0359L36.2317 91.0367C35.3143 92.2155 34.3956 93.3961 33.4983 94.6144L28.1216 101.915L28.1215 101.915L28.1172 101.921C27.9947 102.107 27.9344 102.319 27.9589 102.524C27.9837 102.732 28.0949 102.921 28.2927 103.052L28.3753 102.926L28.2927 103.052C28.4783 103.174 28.6906 103.234 28.8954 103.21C29.1023 103.185 29.2902 103.075 29.4207 102.879C30.3147 101.666 31.2305 100.489 32.1477 99.3102L32.1483 99.3094C33.0657 98.1306 33.9844 96.9501 34.8817 95.7317L37.57 92.0814L40.2584 88.4311L40.2751 88.4084L40.2825 88.381L40.2842 88.3745C40.3478 88.1372 40.4253 87.8483 40.2211 87.4947L40.1454 87.3635L40.1359 87.3471L40.1347 87.345L40.1345 87.3447L40.1344 87.3445L40.1342 87.3442L40.1338 87.3435L40.133 87.3422L40.1313 87.3394C40.1089 87.3309 40.0876 87.3261 40.0679 87.3241Z" fill="#F57A00" stroke="#F57A00" stroke-width="0.3"/>
<path d="M26.6209 106.697L26.6389 106.673L26.6466 106.645L26.6484 106.638C26.707 106.419 26.7775 106.156 26.6278 105.839L26.8861 105.845L26.4515 105.558C26.2658 105.436 26.0535 105.375 25.8487 105.4C25.6423 105.424 25.4547 105.534 25.3242 105.729L23.9614 107.513L23.9614 107.513L23.9598 107.515C22.1672 109.949 20.3773 112.379 18.5016 114.659L18.4966 114.665L18.4922 114.672C18.3697 114.858 18.3094 115.07 18.3339 115.275C18.3587 115.483 18.4699 115.672 18.6677 115.802C18.8533 115.925 19.0656 115.985 19.2704 115.961C19.476 115.936 19.6629 115.827 19.7933 115.634C21.6729 113.349 23.4655 110.914 25.2553 108.484L25.2559 108.483L26.6209 106.697Z" fill="#F57A00" stroke="#F57A00" stroke-width="0.3"/>
<path d="M24.0729 89.5893L24.073 89.5894L24.0777 89.5858C24.4439 89.3055 24.8121 89.024 25.182 88.7412C28.0277 86.5659 30.9718 84.3155 33.8483 81.9477C34.0407 81.8316 34.1282 81.6455 34.1407 81.4522C34.1531 81.2604 34.093 81.0596 33.9954 80.8905C33.8471 80.6336 33.6473 80.4904 33.4035 80.4668C33.172 80.4444 32.9298 80.5332 32.695 80.6687L32.6843 80.6749L32.6747 80.6828C29.7995 83.0497 26.8566 85.2993 24.0074 87.4774C23.6377 87.76 23.2696 88.0414 22.9034 88.3217L22.9032 88.3215L22.8975 88.3264C22.1627 88.9496 21.406 89.5359 20.6461 90.1246L20.6448 90.1256C19.8863 90.7132 19.1247 91.3032 18.3844 91.9311L18.3681 91.945L18.3563 91.9629C18.1074 92.3398 18.1373 92.7877 18.3346 93.1295L18.3523 93.1601L18.3818 93.1796C18.7588 93.4285 19.2067 93.3986 19.5484 93.2013L19.5601 93.1946L19.5705 93.1858C21.0469 91.9335 22.5173 90.6864 24.0729 89.5893Z" fill="#F57A00" stroke="#F57A00" stroke-width="0.3"/>
<path d="M11.2484 99.5843L11.2488 99.5848L11.259 99.5761C11.9938 98.9529 12.7505 98.3666 13.5104 97.7779L13.5116 97.7769C14.2669 97.1919 15.0251 96.6044 15.7624 95.9796C15.954 95.8634 16.0413 95.6776 16.0538 95.4846C16.0661 95.2928 16.0061 95.0921 15.9084 94.9229C15.7601 94.6661 15.5603 94.5229 15.3165 94.4993C15.0851 94.4768 14.8428 94.5656 14.6081 94.7012L14.5963 94.7079L14.586 94.7167C13.8512 95.34 13.0945 95.9263 12.3347 96.5149L12.3334 96.5159C11.5764 97.1023 10.8164 97.6911 10.0776 98.3176C9.37047 98.8261 8.64816 99.393 7.92888 99.9576L7.92745 99.9588C7.20502 100.526 6.48564 101.09 5.78259 101.596L5.76017 101.612L5.74497 101.635C5.49611 102.012 5.52596 102.46 5.72327 102.802L5.74097 102.832L5.77052 102.852C6.14743 103.101 6.59536 103.071 6.9371 102.873L6.94358 102.87L6.94966 102.865C7.61042 102.39 8.25208 101.883 8.90442 101.367C8.9525 101.329 9.00064 101.291 9.04885 101.253C9.75206 100.697 10.4711 100.133 11.2484 99.5843Z" fill="#F57A00" stroke="#F57A00" stroke-width="0.3"/>
<path d="M36.7887 103.081L36.7137 103.211C36.5216 103.1 36.395 102.9 36.3398 102.694C36.2846 102.488 36.2945 102.252 36.4054 102.06L36.4054 102.06L42.8085 90.9697C42.9194 90.7776 43.1188 90.651 43.3248 90.5958C43.5309 90.5406 43.7668 90.5505 43.9589 90.6614C44.1511 90.7723 44.2776 90.9717 44.3328 91.1778C44.388 91.3838 44.3781 91.6198 44.2672 91.8119L37.8642 102.902M36.7887 103.081L37.8642 102.902M36.7887 103.081L36.7137 103.211C36.9058 103.321 37.1418 103.331 37.3478 103.276C37.5539 103.221 37.7533 103.094 37.8642 102.902M36.7887 103.081L37.8642 102.902" fill="#F57A00" stroke="#F57A00" stroke-width="0.3"/>
<path d="M35.5933 105.198L35.5933 105.198C35.4012 105.087 35.1652 105.077 34.9591 105.133C34.7531 105.188 34.5537 105.314 34.4428 105.507L29.2511 114.499C29.1402 114.691 29.1303 114.927 29.1855 115.133C29.2407 115.339 29.3673 115.538 29.5594 115.649L29.6344 115.519L29.5594 115.649C29.7515 115.76 29.9875 115.77 30.1935 115.715C30.3996 115.66 30.599 115.533 30.7099 115.341L35.9015 106.349C36.0125 106.157 36.0224 105.921 35.9671 105.715C35.9119 105.509 35.7854 105.309 35.5933 105.198Z" fill="#F57A00" stroke="#F57A00" stroke-width="0.3"/>
<path d="M54.8146 87.0558L54.8184 87.0415L54.8193 87.0266C54.8313 86.8267 54.8227 86.6448 54.7604 86.4852C54.6955 86.3193 54.5787 86.1925 54.4046 86.092C54.4046 86.092 54.4046 86.092 54.4046 86.092L54.2548 86.0055L54.2241 85.9878L54.1887 85.9857C53.9793 85.9731 53.7384 86.0001 53.5404 86.0902C53.3429 86.18 53.1708 86.3432 53.1489 86.6004L49.1349 101.852L49.1311 101.867L49.1303 101.881C49.1177 102.091 49.1447 102.332 49.2348 102.53C49.3264 102.731 49.4945 102.906 49.7608 102.922C49.9702 102.935 50.2111 102.908 50.4091 102.818C50.6066 102.728 50.7788 102.565 50.8006 102.308L54.8146 87.0558Z" fill="#F57A00" stroke="#F57A00" stroke-width="0.3"/>
<path d="M49.2968 105.324L49.2968 105.324L49.1469 105.237L49.1162 105.219L49.0809 105.217C48.8714 105.205 48.6305 105.232 48.4325 105.322C48.2351 105.412 48.063 105.575 48.0411 105.832L43.7444 121.919L43.7405 121.934L43.7396 121.949C43.7271 122.158 43.7541 122.399 43.8442 122.597C43.9358 122.799 44.1038 122.974 44.3701 122.99C44.5796 123.002 44.8205 122.975 45.0185 122.885C45.2159 122.796 45.388 122.632 45.4099 122.375L49.7066 106.288L49.7105 106.273L49.7114 106.258C49.7234 106.058 49.7149 105.876 49.6525 105.717C49.5877 105.551 49.4709 105.424 49.2968 105.324Z" fill="#F57A00" stroke="#F57A00" stroke-width="0.3"/>
<path d="M56.2624 94.3688L56.4006 94.2608L56.0047 94.2371C55.7826 94.2237 55.5686 94.2777 55.4035 94.4013C55.2367 94.5261 55.129 94.7154 55.1138 94.9501C54.9465 96.4483 54.7418 97.9254 54.5368 99.4046L54.5366 99.4055C54.3316 100.885 54.1262 102.367 53.9583 103.871L52.9522 112.882L52.9521 112.882L52.9516 112.889C52.9383 113.111 52.9923 113.325 53.1158 113.49C53.2413 113.658 53.4321 113.766 53.6686 113.78C53.8907 113.794 54.1047 113.74 54.2698 113.616C54.4366 113.491 54.5443 113.302 54.5595 113.067C54.7268 111.569 54.9315 110.092 55.1365 108.613L55.1367 108.612C55.3417 107.132 55.5471 105.65 55.715 104.147L56.721 95.1358L56.7242 95.1077L56.7169 95.0803L56.7151 95.0738C56.6541 94.8461 56.5804 94.571 56.2624 94.3688ZM53.1013 112.898L53.1013 112.898L53.1013 112.898Z" fill="#F57A00" stroke="#F57A00" stroke-width="0.3"/>
<path d="M54.0527 117.709C53.9892 117.471 53.9118 117.182 53.5582 116.978C53.5582 116.978 53.5582 116.978 53.5582 116.978L53.427 116.903L53.4106 116.893L53.4085 116.892L53.4081 116.892L53.4079 116.892L53.4075 116.891L53.4067 116.891L53.405 116.89L53.4014 116.888C53.3785 116.892 53.3581 116.898 53.3403 116.906L53.3423 116.872C53.1202 116.859 52.9062 116.913 52.7411 117.036C52.5746 117.161 52.467 117.349 52.4515 117.584L52.1632 119.81L52.1631 119.81L52.1629 119.812C51.8274 122.817 51.4925 125.816 51.008 128.729L51.0068 128.736L51.0063 128.744C50.993 128.966 51.047 129.18 51.1705 129.346C51.296 129.513 51.4868 129.621 51.7233 129.635C51.9454 129.649 52.1594 129.595 52.3245 129.471C52.4903 129.347 52.5977 129.159 52.6139 128.927C53.0991 126.008 53.4346 123.003 53.7695 120.003L53.7695 120.003L54.0583 117.773L54.0621 117.744L54.0545 117.715L54.0527 117.709Z" fill="#F57A00" stroke="#F57A00" stroke-width="0.3"/>
<path d="M43.3075 104.223L43.3074 104.223C42.5087 105.951 41.8588 107.767 41.2064 109.589L41.2018 109.602L41.195 109.614C40.9977 109.955 40.6247 110.205 40.1739 110.178L40.1386 110.176L40.1079 110.158C39.7662 109.961 39.5163 109.588 39.5434 109.137L39.5447 109.116L39.5519 109.096C39.8791 108.182 40.2436 107.29 40.6067 106.402L40.6073 106.4C40.971 105.511 41.3332 104.625 41.658 103.717L41.6605 103.71L41.6607 103.71C41.8376 103.285 42.0157 102.857 42.1946 102.427C43.5731 99.1164 44.997 95.6967 46.3035 92.2093L46.3078 92.1976L46.314 92.1869C46.4496 91.9521 46.6149 91.7541 46.8266 91.6578C47.0496 91.5564 47.2942 91.5805 47.551 91.7287L43.3075 104.223ZM43.3075 104.223L43.3097 104.218C43.4866 103.792 43.6647 103.365 43.8436 102.935C45.2205 99.628 46.645 96.2068 47.9523 92.7179L43.3075 104.223Z" fill="#F57A00" stroke="#F57A00" stroke-width="0.3"/>
<path d="M37.2066 119.286L37.206 119.286C36.807 120.15 36.4665 120.998 36.1354 121.831C36.1127 121.888 36.0901 121.945 36.0674 122.002C35.7604 122.775 35.4585 123.535 35.1237 124.277L35.1207 124.284L35.1169 124.29C34.9196 124.632 34.5466 124.882 34.0958 124.855L34.0604 124.853L34.0298 124.835C33.688 124.638 33.4382 124.265 33.4653 123.814L33.4669 123.786L33.4783 123.761C33.8344 122.972 34.1751 122.123 34.5172 121.271L34.5179 121.269C34.8585 120.421 35.2006 119.569 35.5587 118.775C35.8853 117.863 36.2491 116.973 36.6114 116.086L36.6121 116.085C36.9758 115.195 37.338 114.309 37.6627 113.402L37.6673 113.389L37.674 113.377C37.8096 113.143 37.9749 112.945 38.1866 112.848C38.4096 112.747 38.6542 112.771 38.911 112.919L37.2066 119.286ZM37.2066 119.286L37.2111 119.274C37.5358 118.367 37.8981 117.481 38.2618 116.591L38.2623 116.589C38.6239 115.705 38.9868 114.817 39.3129 113.907L37.2066 119.286Z" fill="#F57A00" stroke="#F57A00" stroke-width="0.3"/>
<path d="M61.6804 95.4608C61.8313 95.6116 61.9407 95.8209 61.9407 96.0427V108.849C61.9407 109.071 61.8313 109.28 61.6804 109.431C61.5296 109.582 61.3203 109.691 61.0985 109.691C60.8766 109.691 60.6673 109.582 60.5165 109.431C60.3657 109.28 60.2562 109.071 60.2562 108.849V96.0427C60.2562 95.8209 60.3657 95.6116 60.5165 95.4608C60.6673 95.3099 60.8766 95.2005 61.0985 95.2005L61.6804 95.4608ZM61.6804 95.4608C61.5296 95.3099 61.3203 95.2005 61.0985 95.2005L61.6804 95.4608Z" fill="#F57A00" stroke="#F57A00" stroke-width="0.3"/>
<path d="M61.9407 112.83C61.9407 112.608 61.8313 112.399 61.6804 112.248C61.5296 112.097 61.3203 111.988 61.0985 111.988C60.8766 111.988 60.6673 112.097 60.5165 112.248C60.3657 112.399 60.2562 112.608 60.2562 112.83V123.213C60.2562 123.435 60.3657 123.644 60.5165 123.795C60.6673 123.946 60.8766 124.055 61.0985 124.055C61.3203 124.055 61.5296 123.946 61.6804 123.795C61.8313 123.644 61.9407 123.435 61.9407 123.213V112.83Z" fill="#F57A00" stroke="#F57A00" stroke-width="0.3"/>
<path d="M68.6728 86.6585L68.6689 86.6442L68.6623 86.6309C68.5727 86.4517 68.4744 86.2985 68.3406 86.1915C68.2015 86.0802 68.0369 86.0288 67.8359 86.0288H67.6628H67.6274L67.5958 86.0447C67.4081 86.1385 67.213 86.2824 67.0865 86.4594C66.9604 86.6359 66.8929 86.8633 67.0026 87.0969L71.1523 102.312L71.1562 102.327L71.1628 102.34C71.2567 102.528 71.4005 102.723 71.5776 102.849C71.7577 102.978 71.9907 103.046 72.2294 102.926C72.4171 102.832 72.6122 102.689 72.7386 102.512C72.8647 102.335 72.9322 102.108 72.8225 101.874L68.6728 86.6585Z" fill="#F57A00" stroke="#F57A00" stroke-width="0.3"/>
<path d="M82.4157 80.9819L82.4044 80.9693L82.3905 80.9595C82.2464 80.8583 82.1026 80.7807 81.943 80.7533C81.7797 80.7253 81.6165 80.7526 81.4379 80.831L81.2795 80.9006L81.2523 80.9125L81.2317 80.9339C81.0927 81.0785 80.9607 81.2658 80.9025 81.454C80.8731 81.5491 80.8598 81.6533 80.8827 81.7554C80.9052 81.8558 80.9608 81.9445 81.0503 82.0122L89.8941 91.8363L89.9055 91.8489L89.9194 91.8587C90.0717 91.9657 90.271 92.0559 90.4752 92.0803C90.6819 92.1049 90.9069 92.0625 91.0782 91.8843C91.2172 91.7398 91.3491 91.5524 91.4073 91.3642C91.4367 91.2691 91.45 91.1649 91.4271 91.0629C91.4046 90.9624 91.349 90.8738 91.2595 90.806L82.4157 80.9819Z" fill="#F57A00" stroke="#F57A00" stroke-width="0.3"/>
<path d="M73.8566 105.868L73.8526 105.853L73.8459 105.84C73.7563 105.66 73.658 105.507 73.5242 105.4C73.3851 105.289 73.2205 105.238 73.0195 105.238H72.8464H72.811L72.7794 105.253C72.5917 105.347 72.3966 105.491 72.2701 105.668C72.1441 105.845 72.0766 106.072 72.1861 106.305L76.5088 122.386L76.5127 122.4L76.5195 122.414C76.6133 122.602 76.7572 122.797 76.9342 122.923C77.1143 123.052 77.3474 123.12 77.586 123C77.7737 122.906 77.9688 122.763 78.0952 122.585C78.2213 122.409 78.2888 122.182 78.1793 121.948L73.8566 105.868Z" fill="#F57A00" stroke="#F57A00" stroke-width="0.3"/>
<path d="M74.3757 92.6938L74.3643 92.6679L74.3443 92.6479C74.3427 92.6463 74.3411 92.6447 74.3395 92.6431C74.1658 92.4694 73.9543 92.2579 73.546 92.2579L73.3946 92.2579L73.3756 92.2579L73.3732 92.2579L73.3727 92.2579L73.3723 92.2579L73.3715 92.2579L73.37 92.2579L73.367 92.258L73.3609 92.2584C73.3436 92.2694 73.3288 92.2818 73.3164 92.2948L73.3059 92.2737C73.1069 92.3732 72.9486 92.527 72.8674 92.7165C72.7853 92.908 72.7867 93.1258 72.8909 93.3366C73.4951 94.7178 74.0564 96.0993 74.6185 97.4829L74.6188 97.4838C75.181 98.8677 75.7441 100.254 76.3505 101.64L79.9847 109.947L79.9845 109.947L79.988 109.953C80.0874 110.152 80.2412 110.311 80.4308 110.392C80.6233 110.475 80.8425 110.473 81.0545 110.367C81.2534 110.267 81.4118 110.113 81.493 109.924C81.5751 109.732 81.5737 109.515 81.4695 109.304C80.8653 107.923 80.304 106.541 79.7419 105.157L79.7416 105.157C79.1794 103.773 78.6163 102.387 78.0098 101L74.3757 92.6938Z" fill="#F57A00" stroke="#F57A00" stroke-width="0.3"/>
<path d="M83.3884 113.636L83.377 113.609L83.356 113.588L83.3513 113.583C83.1775 113.409 82.9661 113.197 82.5578 113.197H82.5567H82.5557H82.5547H82.5537H82.5527H82.5517H82.5508H82.5498H82.5488H82.5478H82.5468H82.5459H82.5449H82.5439H82.543H82.542H82.5411H82.5401H82.5392H82.5383H82.5373H82.5364H82.5355H82.5345H82.5336H82.5327H82.5318H82.5309H82.53H82.5291H82.5282H82.5273H82.5264H82.5255H82.5246H82.5238H82.5229H82.522H82.5211H82.5203H82.5194H82.5186H82.5177H82.5169H82.516H82.5152H82.5143H82.5135H82.5127H82.5118H82.511H82.5102H82.5094H82.5086H82.5078H82.507H82.5062H82.5054H82.5046H82.5038H82.503H82.5022H82.5014H82.5006H82.4999H82.4991H82.4983H82.4976H82.4968H82.496H82.4953H82.4945H82.4938H82.493H82.4923H82.4916H82.4908H82.4901H82.4894H82.4886H82.4879H82.4872H82.4865H82.4858H82.4851H82.4844H82.4837H82.483H82.4823H82.4816H82.4809H82.4802H82.4795H82.4789H82.4782H82.4775H82.4769H82.4762H82.4755H82.4749H82.4742H82.4736H82.4729H82.4723H82.4716H82.471H82.4704H82.4697H82.4691H82.4685H82.4678H82.4672H82.4666H82.466H82.4654H82.4648H82.4642H82.4636H82.463H82.4624H82.4618H82.4612H82.4606H82.46H82.4594H82.4589H82.4583H82.4577H82.4571H82.4566H82.456H82.4554H82.4549H82.4543H82.4538H82.4532H82.4527H82.4522H82.4516H82.4511H82.4505H82.45H82.4495H82.449H82.4484H82.4479H82.4474H82.4469H82.4464H82.4459H82.4454H82.4449H82.4444H82.4439H82.4434H82.4429H82.4424H82.4419H82.4414H82.4409H82.4405H82.44H82.4395H82.439H82.4386H82.4381H82.4376H82.4372H82.4367H82.4363H82.4358H82.4354H82.4349H82.4345H82.434H82.4336H82.4332H82.4327H82.4323H82.4319H82.4315H82.431H82.4306H82.4302H82.4298H82.4294H82.429H82.4286H82.4281H82.4277H82.4273H82.4269H82.4266H82.4262H82.4258H82.4254H82.425H82.4246H82.4242H82.4239H82.4235H82.4231H82.4227H82.4224H82.422H82.4216H82.4213H82.4209H82.4206H82.4202H82.4199H82.4195H82.4192H82.4188H82.4185H82.4181H82.4178H82.4175H82.4171H82.4168H82.4165H82.4161H82.4158H82.4155H82.4152H82.4149H82.4145H82.4142H82.4139H82.4136H82.4133H82.413H82.4127H82.4124H82.4121H82.4118H82.4115H82.4112H82.4109H82.4106H82.4104H82.4101H82.4098H82.4095H82.4092H82.409H82.4087H82.4084H82.4082H82.4079H82.4076H82.4074H82.4071H82.4068H82.4066H82.4063H82.4061H82.4058H82.4056H82.4053H82.4051H82.4048H82.4046H82.4044H82.4041H82.4039H82.4037H82.4034H82.4032H82.403H82.4027H82.4025H82.4023H82.4021H82.4019H82.4016H82.4014H82.4012H82.401H82.4008H82.4006H82.4004H82.4002H82.4H82.3998H82.3996H82.3994H82.3992H82.399H82.3988H82.3986H82.3984H82.3982H82.3981H82.3979H82.3977H82.3975H82.3973H82.3972H82.397H82.3968H82.3966H82.3965H82.3963H82.3961H82.396H82.3958H82.3956H82.3955H82.3953H82.3952H82.395H82.3949H82.3947H82.3946H82.3944H82.3943H82.3941H82.394H82.3938H82.3937H82.3935H82.3934H82.3933H82.3931H82.393H82.3929H82.3927H82.3926H82.3925H82.3923H82.3922H82.3921H82.392H82.3919H82.3917H82.3916H82.3915H82.3914H82.3913H82.3911H82.391H82.3909H82.3908H82.3907H82.3906H82.3905H82.3904H82.3903H82.3902H82.3901H82.39H82.3899H82.3898H82.3897H82.3896H82.3895H82.3894H82.3893H82.3892H82.3891H82.3891H82.389H82.3889H82.3888H82.3887H82.3886H82.3886H82.3885H82.3884H82.3883H82.3882H82.3882H82.3881H82.388H82.3879H82.3879H82.3878H82.3877H82.3877H82.3876H82.3875H82.3875H82.3874H82.3873H82.3873H82.3872H82.3872H82.3871H82.387H82.387H82.3869H82.3869H82.3868H82.3868H82.3867H82.3867H82.3866H82.3866H82.3865H82.3865H82.3864H82.3864H82.3863H82.3863H82.3862H82.3862H82.3862H82.3861H82.3861H82.386H82.386H82.386H82.3859H82.3859H82.3858H82.3858H82.3858H82.3857H82.3857H82.3857H82.3856H82.3856H82.3856H82.3856H82.3855H82.3855H82.3855H82.3854H82.3854H82.3854H82.3854H82.3853H82.3853H82.3853H82.3853H82.3852H82.3852H82.3852H82.3852H82.3852H82.3851H82.3851H82.3851H82.3851H82.3851H82.3851H82.385H82.385H82.385H82.385H82.385H82.385H82.385H82.3849H82.3849H82.3849H82.3849H82.3849H82.3849H82.3849H82.3849H82.3849H82.3848H82.3848H82.3848H82.3848H82.3848H82.3848H82.3848H82.3848H82.3848H82.3848H82.3848H82.3848H82.3848H82.3848H82.3848H82.3847H82.3847H82.3847H82.3847H82.3847H82.3847H82.3847H82.3847H82.3847H82.3847H82.3847H82.3847H82.3847H82.3847H82.3847H82.3847H82.3847H82.3847H82.3847H82.3847H82.3847H82.3847H82.3847H82.3847H82.3847H82.3847H82.3847L82.3847 113.347L82.3176 113.213C82.1187 113.313 81.9603 113.467 81.8791 113.656C81.7972 113.847 81.7984 114.065 81.902 114.275L82.7654 116.347L82.7654 116.347L82.7664 116.35C83.9781 119.119 85.1878 121.884 86.2245 124.649L86.2273 124.656L86.2308 124.663C86.3303 124.862 86.4841 125.02 86.6736 125.102C86.8662 125.184 87.0854 125.182 87.2973 125.076C87.4963 124.977 87.6546 124.823 87.7358 124.634C87.8174 124.443 87.8165 124.227 87.7142 124.017C86.6751 121.247 85.4635 118.478 84.2538 115.713L84.2532 115.711L83.3884 113.636Z" fill="#F57A00" stroke="#F57A00" stroke-width="0.3"/>
<path d="M67.2976 107.278L67.2977 107.278L67.2969 107.272C67.2373 106.815 67.1777 106.356 67.1178 105.894C66.6567 102.342 66.1798 98.6667 65.5675 94.9915C65.5631 94.7669 65.4457 94.598 65.2845 94.4905C65.1246 94.3839 64.9207 94.3355 64.7254 94.3355C64.4288 94.3355 64.2049 94.437 64.0626 94.6363C63.9274 94.8255 63.8832 95.0797 63.8832 95.3508V95.3632L63.8852 95.3755C64.4975 99.0489 64.9742 102.722 65.4358 106.279C65.4957 106.74 65.5554 107.2 65.615 107.657L65.6148 107.657L65.6162 107.665C65.7885 108.613 65.9179 109.561 66.0478 110.513L66.048 110.515C66.1776 111.466 66.3078 112.42 66.4814 113.375L66.4853 113.396L66.4949 113.416C66.6968 113.82 67.0997 114.018 67.4943 114.018H67.5297L67.5614 114.002C67.9653 113.8 68.1635 113.397 68.1635 113.002V112.989L68.161 112.976C67.8147 111.071 67.4699 109.174 67.2976 107.278Z" fill="#F57A00" stroke="#F57A00" stroke-width="0.3"/>
<path d="M69.5358 123.371L69.5364 123.371L69.534 123.358C69.3616 122.41 69.2323 121.461 69.1024 120.509L69.1022 120.507C68.9731 119.561 68.8435 118.61 68.671 117.66C68.6662 117.435 68.549 117.267 68.388 117.16C68.2281 117.053 68.0242 117.005 67.8289 117.005C67.5324 117.005 67.3084 117.106 67.1661 117.305C67.0309 117.495 66.9867 117.749 66.9867 118.02L66.9867 118.034L66.9891 118.047C67.1615 118.995 67.2909 119.943 67.4207 120.896L67.4209 120.897C67.5503 121.846 67.6802 122.799 67.8533 123.752C67.9402 124.618 68.07 125.527 68.1994 126.433L68.1996 126.434C68.3295 127.344 68.4588 128.249 68.545 129.11L68.5477 129.138L68.56 129.163C68.762 129.567 69.1649 129.765 69.5595 129.765H69.5949L69.6266 129.749C70.0305 129.547 70.2287 129.144 70.2287 128.749V128.742L70.2279 128.734C70.1469 127.925 70.0283 127.115 69.9076 126.292C69.8988 126.232 69.8899 126.171 69.881 126.11C69.7512 125.223 69.6219 124.318 69.5358 123.371Z" fill="#F57A00" stroke="#F57A00" stroke-width="0.3"/>
<path d="M78.1688 90.5755L78.1688 90.5755C78.3609 90.4646 78.5969 90.4547 78.8029 90.5099C79.009 90.5652 79.2084 90.6917 79.3193 90.8838M78.1688 90.5755L79.1894 90.9588M78.1688 90.5755C77.9767 90.6865 77.8501 90.8859 77.7949 91.0919C77.7397 91.298 77.7496 91.5339 77.8605 91.726L77.8605 91.726L84.2635 102.816C84.3745 103.009 84.5738 103.135 84.7799 103.19C84.986 103.245 85.2219 103.236 85.414 103.125L85.339 102.995M78.1688 90.5755L85.339 102.995M79.3193 90.8838L79.1894 90.9588M79.3193 90.8838L79.3193 90.8838L79.1894 90.9588M79.3193 90.8838L85.7223 101.974C85.8332 102.166 85.8431 102.402 85.7879 102.608C85.7327 102.814 85.6061 103.014 85.414 103.125L85.339 102.995M79.1894 90.9588L85.5924 102.049C85.7654 102.349 85.6388 102.822 85.339 102.995" fill="#F57A00" stroke="#F57A00" stroke-width="0.3"/>
<path d="M87.2033 105.047C86.9972 104.992 86.7613 105.002 86.5692 105.113L86.5692 105.113C86.3771 105.224 86.2505 105.423 86.1953 105.629C86.1401 105.835 86.15 106.071 86.2609 106.263L91.4525 115.255C91.5635 115.448 91.7629 115.574 91.9689 115.629C92.175 115.684 92.4109 115.675 92.603 115.564C92.7952 115.453 92.9217 115.253 92.9769 115.047C93.0321 114.841 93.0222 114.605 92.9113 114.413L87.7197 105.421C87.6088 105.229 87.4094 105.102 87.2033 105.047Z" fill="#F57A00" stroke="#F57A00" stroke-width="0.3"/>
<path d="M109.113 108.203L109.124 108.214L117.285 116.474C117.497 116.622 117.552 116.852 117.531 117.068C117.51 117.284 117.413 117.507 117.297 117.682L117.297 117.682C117.15 117.904 116.914 117.962 116.694 117.941C116.478 117.92 116.256 117.823 116.08 117.707L116.067 117.699L116.056 117.688L107.895 109.427C107.683 109.28 107.628 109.049 107.649 108.834C107.67 108.617 107.767 108.395 107.883 108.22L107.902 108.19L107.933 108.173L108.083 108.086C108.083 108.086 108.083 108.086 108.083 108.086M109.113 108.203L109.017 108.32C108.694 108.106 108.458 108.043 108.158 108.216L108.083 108.086M109.113 108.203L109.1 108.194C108.932 108.084 108.771 108 108.601 107.975C108.425 107.948 108.257 107.986 108.083 108.086M109.113 108.203L108.083 108.086" fill="#F57A00" stroke="#F57A00" stroke-width="0.3"/>
<path d="M94.5916 93.4245L94.5809 93.4138L94.5683 93.4055C94.4011 93.2951 94.2394 93.2116 94.07 93.1858C93.8938 93.159 93.7257 93.1968 93.5516 93.2973C93.5516 93.2973 93.5516 93.2973 93.5516 93.2973L93.4017 93.3838L93.3711 93.4015L93.3515 93.4311C93.2359 93.6062 93.1389 93.8283 93.1179 94.0448C93.097 94.2607 93.1521 94.4913 93.3638 94.6388L105.148 106.403L105.158 106.414L105.171 106.423C105.346 106.538 105.568 106.635 105.785 106.656C106.005 106.678 106.241 106.62 106.388 106.397C106.503 106.222 106.6 106 106.621 105.783C106.642 105.567 106.587 105.337 106.375 105.189L94.5916 93.4245Z" fill="#F57A00" stroke="#F57A00" stroke-width="0.3"/>
<path d="M80.9021 88.0093L80.9021 88.0093C80.6453 88.1576 80.5021 88.3574 80.4785 88.6012C80.456 88.8327 80.5448 89.0749 80.6804 89.3097L80.6866 89.3204L80.6945 89.33C83.0614 92.2052 85.311 95.1481 87.4891 97.9974C87.7717 98.3671 88.053 98.7352 88.3333 99.1013L88.3332 99.1015L88.338 99.1072C88.9613 99.842 89.5476 100.599 90.1362 101.359L90.1372 101.36C90.7249 102.118 91.3149 102.88 91.9428 103.62L91.9566 103.637L91.9745 103.648C92.3514 103.897 92.7994 103.867 93.1411 103.67L93.1718 103.652L93.1913 103.623C93.4401 103.246 93.4103 102.798 93.213 102.456L93.2062 102.445L93.1975 102.434C91.9452 100.958 90.6981 99.4874 89.6009 97.9318L89.601 97.9317L89.5974 97.927C89.3171 97.5608 89.0356 97.1925 88.7528 96.8226C86.5776 93.977 84.3271 91.0329 81.9594 88.1564C81.8432 87.964 81.6572 87.8765 81.4638 87.864C81.272 87.8516 81.0713 87.9117 80.9021 88.0093Z" fill="#F57A00" stroke="#F57A00" stroke-width="0.3"/>
<path d="M99.6026 110.744L99.6031 110.744L99.5944 110.734C98.9711 109.999 98.3848 109.242 97.7962 108.482L97.7952 108.481C97.2101 107.726 96.6227 106.968 95.9978 106.23C95.8816 106.039 95.6959 105.951 95.5029 105.939C95.3111 105.927 95.1103 105.987 94.9412 106.084C94.6844 106.233 94.5412 106.432 94.5175 106.676C94.4951 106.908 94.5839 107.15 94.7194 107.385L94.7262 107.396L94.735 107.407C95.3582 108.142 95.9445 108.898 96.5331 109.658L96.5341 109.659C97.1206 110.416 97.7094 111.176 98.3358 111.915C98.8443 112.622 99.4113 113.345 99.9759 114.064L99.977 114.065C100.544 114.788 101.109 115.507 101.614 116.21L101.63 116.233L101.653 116.248C102.03 116.497 102.478 116.467 102.82 116.269L102.851 116.252L102.87 116.222C103.119 115.845 103.089 115.397 102.892 115.056L102.888 115.049L102.884 115.043C102.409 114.382 101.901 113.741 101.385 113.088C101.347 113.04 101.309 112.992 101.271 112.944C100.715 112.241 100.151 111.522 99.6026 110.744Z" fill="#F57A00" stroke="#F57A00" stroke-width="0.3"/>
<path d="M108.085 13.9303L108.085 13.9303L108.172 14.0802L108.189 14.1109L108.219 14.1304C108.394 14.246 108.616 14.3431 108.833 14.3641C109.048 14.385 109.279 14.3299 109.426 14.1186L117.686 5.95682L117.698 5.94582L117.706 5.93277C117.822 5.75764 117.919 5.5355 117.94 5.31899C117.961 5.0987 117.903 4.863 117.681 4.71601L117.598 4.84111L117.681 4.71601C117.506 4.60038 117.283 4.50334 117.067 4.48235C116.851 4.46144 116.621 4.51654 116.473 4.72777L108.213 12.8896L108.202 12.9006L108.193 12.9136C108.083 13.0808 107.999 13.2425 107.974 13.4119C107.947 13.5881 107.985 13.7563 108.085 13.9303Z" fill="#F57A00" stroke="#F57A00" stroke-width="0.3"/>
<path d="M93.4272 27.4248L93.4165 27.4355L93.4082 27.4482C93.2978 27.6153 93.2142 27.7771 93.1884 27.9465C93.1616 28.1226 93.1994 28.2908 93.2999 28.4649C93.2999 28.4649 93.2999 28.4649 93.2999 28.4649L93.3864 28.6147L93.4041 28.6454L93.4337 28.6649C93.6088 28.7806 93.831 28.8776 94.0475 28.8986C94.2633 28.9195 94.4939 28.8643 94.6414 28.6527L106.406 16.8689L106.417 16.8582L106.425 16.8456C106.541 16.6705 106.638 16.4483 106.659 16.2318C106.68 16.0115 106.622 15.7758 106.4 15.6288C106.224 15.5132 106.002 15.4162 105.786 15.3952C105.57 15.3742 105.339 15.4294 105.192 15.641L93.4272 27.4248Z" fill="#F57A00" stroke="#F57A00" stroke-width="0.3"/>
<path d="M81.7483 33.5911L81.7651 33.5683L87.1418 26.2677C88.039 25.0494 88.9578 23.8688 89.8751 22.6901L89.8758 22.6892C90.793 21.5106 91.7088 20.3338 92.6028 19.12C92.7333 18.9243 92.9212 18.8142 93.1281 18.7895C93.3328 18.7651 93.5452 18.8253 93.7308 18.9479M81.7483 33.5911L93.7308 18.9479C93.7308 18.9479 93.7308 18.9479 93.7308 18.9479M81.7483 33.5911L81.741 33.6184L81.7393 33.625C81.6756 33.8623 81.5982 34.1512 81.8024 34.5048L81.7483 33.5911ZM93.7308 18.9479C93.9286 19.0785 94.0398 19.2673 94.0646 19.4754C94.089 19.6801 94.0288 19.8925 93.9062 20.0781L93.902 20.0845L93.9018 20.0844L88.5252 27.385C87.6279 28.6034 86.7091 29.784 85.7917 30.9629L85.7912 30.9635C84.874 32.1421 83.9582 33.3189 83.0641 34.5328C82.9337 34.7284 82.7457 34.8385 82.5389 34.8632C82.3341 34.8876 82.1218 34.8274 81.9361 34.7048L81.9568 34.6735M93.7308 18.9479L81.9568 34.6735M81.9568 34.6735C81.9362 34.6715 81.9138 34.6664 81.8903 34.6571L81.8896 34.6559L81.8892 34.6553L81.8891 34.655L81.889 34.6548L81.8889 34.6547L81.8887 34.6544L81.8875 34.6523L81.8781 34.6359L81.8024 34.5048L81.9568 34.6735Z" fill="#F57A00" stroke="#F57A00" stroke-width="0.3"/>
<path d="M95.3682 15.3624C95.3045 15.5998 95.2271 15.8887 95.4313 16.2423L95.507 16.3734L95.5164 16.3898L95.5176 16.3919L95.5178 16.3922L95.5179 16.3923L95.518 16.3925L95.5182 16.3928L95.5185 16.3934L95.5194 16.3948C95.5427 16.4041 95.5649 16.4093 95.5854 16.4114L95.565 16.4423C95.7507 16.5649 95.963 16.6251 96.1678 16.6007C96.3742 16.5761 96.5618 16.4663 96.6923 16.2714L98.0551 14.4876L98.0551 14.4876L98.0567 14.4855C99.8493 12.0514 101.639 9.62117 103.515 7.34116L103.52 7.33508L103.524 7.32851C103.647 7.14287 103.707 6.93053 103.683 6.72575C103.658 6.51773 103.547 6.32885 103.349 6.19828L103.349 6.19828C103.163 6.07571 102.951 6.01549 102.746 6.03991C102.54 6.06443 102.354 6.17338 102.223 6.36685C100.344 8.65206 98.5507 11.0864 96.7608 13.5168L96.7606 13.517L95.3956 15.3037L95.3776 15.3273L95.3699 15.3559L95.3682 15.3624Z" fill="#F57A00" stroke="#F57A00" stroke-width="0.3"/>
<path d="M89.0091 38.8022L89.0091 38.8022C89.1471 39.0146 89.3307 39.1286 89.5478 39.1473C89.7544 39.1651 89.9712 39.0947 90.1824 38.9864L90.1929 38.981L90.2025 38.974C92.7719 37.0949 95.4018 35.3089 97.9483 33.5796C98.2788 33.3552 98.6078 33.1317 98.9352 32.9092L98.9353 32.9093L98.9411 32.9049C99.5975 32.4103 100.274 31.945 100.953 31.4776L100.954 31.4767C101.632 31.0102 102.313 30.5415 102.975 30.0427L102.992 30.0297L103.005 30.0124C103.238 29.6987 103.209 29.3231 103.025 29.0401L103.006 29.0104L102.975 28.9925C102.636 28.7936 102.236 28.8175 101.929 28.9749L101.918 28.9808L101.908 28.9886C100.588 29.983 99.2743 30.9727 97.8846 31.8434L97.8846 31.8433L97.8799 31.8465C97.5527 32.069 97.2237 32.2924 96.8932 32.5169C94.3501 34.2439 91.7188 36.0308 89.1477 37.9108C88.972 38.0054 88.8853 38.1616 88.873 38.3309C88.8611 38.4955 88.9191 38.6638 89.0091 38.8022Z" fill="#F57A00" stroke="#F57A00" stroke-width="0.3"/>
<path d="M106.098 27.0771L106.098 27.0771C106.247 27.3339 106.447 27.4771 106.69 27.5007C106.922 27.5232 107.164 27.4344 107.399 27.2988L107.411 27.2921L107.421 27.2833C108.156 26.66 108.912 26.0738 109.672 25.4851L109.674 25.4841C110.43 24.8977 111.191 24.3089 111.929 23.6824C112.636 23.1739 113.359 22.607 114.078 22.0424L114.079 22.0412C114.802 21.4742 115.521 20.9095 116.224 20.4041L116.247 20.388L116.262 20.365C116.511 19.9881 116.481 19.5401 116.284 19.1984L116.266 19.1677L116.236 19.1482C115.859 18.8994 115.412 18.9292 115.07 19.1265L115.063 19.1303L115.057 19.1346C114.396 19.6096 113.755 20.1171 113.102 20.6331C113.054 20.6711 113.006 20.7091 112.958 20.7472C112.255 21.3031 111.536 21.8675 110.759 22.4157L110.758 22.4152L110.748 22.4239C110.013 23.0471 109.256 23.6334 108.497 24.2221L108.495 24.223C107.74 24.8081 106.982 25.3956 106.245 26.0204C106.053 26.1366 105.966 26.3224 105.953 26.5154C105.941 26.7072 106.001 26.9079 106.098 27.0771Z" fill="#F57A00" stroke="#F57A00" stroke-width="0.3"/>
<path d="M85.289 18.7888L85.289 18.7888C85.0969 18.6779 84.861 18.668 84.6549 18.7232C84.4488 18.7784 84.2494 18.905 84.1385 19.0971L77.7355 30.1875C77.6246 30.3796 77.6147 30.6155 77.6699 30.8216C77.7251 31.0277 77.8517 31.227 78.0438 31.338C78.2359 31.4489 78.4719 31.4588 78.6779 31.4036C78.884 31.3484 79.0834 31.2218 79.1943 31.0297L85.5973 19.9393L85.4674 19.8643L85.5973 19.9393C85.7082 19.7472 85.7181 19.5113 85.6629 19.3052C85.6077 19.0992 85.4811 18.8998 85.289 18.7888Z" fill="#F57A00" stroke="#F57A00" stroke-width="0.3"/>
<path d="M92.4663 6.34858L92.4663 6.34857C92.2742 6.23766 92.0382 6.22776 91.8322 6.28298C91.6261 6.33819 91.4267 6.46473 91.3158 6.65685L86.1242 15.649C86.0133 15.8412 86.0034 16.0771 86.0586 16.2832C86.1138 16.4892 86.2403 16.6886 86.4325 16.7995C86.6246 16.9105 86.8605 16.9203 87.0666 16.8651C87.2726 16.8099 87.472 16.6834 87.583 16.4913L92.7746 7.49907L92.6447 7.42407L92.7746 7.49907C92.8855 7.30695 92.8954 7.071 92.8402 6.86494C92.785 6.65889 92.6584 6.4595 92.4663 6.34858Z" fill="#F57A00" stroke="#F57A00" stroke-width="0.3"/>
<path d="M67.1817 34.9551L67.1855 34.9407L71.1995 19.6889C71.2213 19.4318 71.3935 19.2686 71.5909 19.1787C71.7889 19.0887 72.0298 19.0616 72.2393 19.0742M67.1817 34.9551L72.2393 19.0742M67.1817 34.9551L67.1808 34.9699C67.1688 35.1699 67.1773 35.3517 67.2397 35.5113C67.3045 35.6773 67.4213 35.804 67.5954 35.9045L67.7453 35.9911L67.776 36.0088L67.8113 36.0109C68.0208 36.0235 68.2617 35.9964 68.4597 35.9063C68.6571 35.8165 68.8293 35.6533 68.8511 35.3962M67.1817 34.9551L68.8511 35.3962M72.2393 19.0742C72.5056 19.0902 72.6736 19.2653 72.7653 19.4668C72.8553 19.6648 72.8824 19.9057 72.8698 20.1152L72.8689 20.13L72.8651 20.1444L68.8511 35.3962M72.2393 19.0742L68.8511 35.3962" fill="#F57A00" stroke="#F57A00" stroke-width="0.3"/>
<path d="M81.2854 39.2122L81.2737 39.2239L81.2647 39.2378C81.1672 39.3898 81.0934 39.541 81.0788 39.7023C81.0636 39.8698 81.1136 40.0274 81.2218 40.1884L81.3463 40.1047L81.2218 40.1884L81.3159 40.3283L81.3338 40.355L81.3611 40.3719C81.5375 40.4817 81.7578 40.5758 81.9678 40.6006C82.1724 40.6248 82.4018 40.5844 82.5404 40.3831L92.6179 30.3998L92.6296 30.3881L92.6386 30.3742C92.7419 30.2131 92.8242 30.0067 92.8306 29.8027C92.8373 29.5922 92.7615 29.3766 92.5422 29.2401C92.3658 29.1303 92.1455 29.0363 91.9355 29.0114C91.7309 28.9873 91.5015 29.0276 91.3629 29.2289L81.2854 39.2122Z" fill="#F57A00" stroke="#F57A00" stroke-width="0.3"/>
<path d="M72.3008 15.7102L72.2969 15.7249L72.296 15.74C72.284 15.9399 72.2925 16.1217 72.3549 16.2813C72.4197 16.4473 72.5366 16.5741 72.7107 16.6746L72.8605 16.7611L72.8912 16.7788L72.9265 16.7809C73.136 16.7935 73.3769 16.7665 73.5749 16.6764C73.7723 16.5866 73.9444 16.4235 73.9663 16.1665L78.263 0.0790494L78.2669 0.0644341L78.2678 0.0493336C78.2804 -0.160146 78.2533 -0.401044 78.1633 -0.599049C78.0716 -0.800505 77.9036 -0.975649 77.6373 -0.991633C77.4278 -1.00421 77.1869 -0.977176 76.9889 -0.887097C76.7915 -0.797306 76.6194 -0.634208 76.5975 -0.377201L72.3008 15.7102Z" fill="#F57A00" stroke="#F57A00" stroke-width="0.3"/>
<path d="M65.2689 26.8632L65.2658 26.8913L65.2731 26.9187L65.2748 26.9252C65.3384 27.1625 65.4158 27.4514 65.7694 27.6556L65.9005 27.7313L65.917 27.7408L65.919 27.742L65.9194 27.7422L65.9195 27.7423L65.9198 27.7424L65.9204 27.7428L65.9215 27.7434L65.9239 27.7447C65.9469 27.7442 65.9681 27.7407 65.9869 27.735L65.9853 27.762C66.2073 27.7753 66.4213 27.7213 66.5865 27.5977C66.7533 27.4729 66.8609 27.2836 66.8761 27.0489C67.0435 25.5507 67.2482 24.0737 67.4532 22.5944L67.4533 22.5935C67.6584 21.1139 67.8637 19.6321 68.0316 18.1283L69.0377 9.11746L69.0379 9.11749L69.0383 9.10981C69.0517 8.88776 68.9977 8.67375 68.8741 8.50862C68.7486 8.34087 68.5579 8.23291 68.3213 8.21871C68.0993 8.20538 67.8852 8.2594 67.7201 8.38294C67.5533 8.50772 67.4456 8.69704 67.4305 8.93173C67.2631 10.43 67.0584 11.907 66.8534 13.3863L66.8533 13.3873C66.6482 14.8668 66.4428 16.3486 66.2749 17.8524L65.2689 26.8632Z" fill="#F57A00" stroke="#F57A00" stroke-width="0.3"/>
<path d="M67.9313 4.22528L67.9275 4.25471L67.9352 4.28337L67.9369 4.28988C68.0005 4.52722 68.0779 4.81614 68.4315 5.0203L68.5626 5.09601L68.579 5.10548L68.5811 5.10665C68.5601 5.03186 68.5745 4.97632 68.5974 4.94286L68.6289 4.96105L68.5882 5.11051L68.6564 4.97692C68.6364 5.01605 68.6394 5.03842 68.6523 5.04542L68.6474 5.12665C68.8694 5.13998 69.0834 5.08597 69.2486 4.96243C69.415 4.83789 69.5226 4.64906 69.5381 4.41502L69.8265 2.18882L69.8265 2.18883L69.8268 2.1862C70.1622 -0.818142 70.4972 -3.8177 70.9816 -6.73013L70.9829 -6.73789L70.9834 -6.74575C70.9967 -6.96781 70.9427 -7.18181 70.8192 -7.34694C70.6937 -7.51469 70.5029 -7.62265 70.2663 -7.63685L70.2574 -7.48721L70.2663 -7.63685C70.0443 -7.65018 69.8303 -7.59616 69.6652 -7.47262C69.4994 -7.34858 69.392 -7.16078 69.3758 -6.92803C68.8905 -4.00919 68.5551 -1.00467 68.2202 1.99509L68.2201 1.99551L67.9313 4.22528Z" fill="#F57A00" stroke="#F57A00" stroke-width="0.3"/>
<path d="M74.448 30.2682L74.523 30.1383L74.448 30.2682C74.7049 30.4165 74.9495 30.4406 75.1725 30.3392C75.3842 30.2429 75.5495 30.0449 75.6851 29.8101L75.6913 29.7993L75.6956 29.7877C77.0021 26.3003 78.4259 22.8807 79.8044 19.5699C79.9833 19.1402 80.1614 18.7125 80.3384 18.2866L80.3386 18.2867L80.3411 18.2796C80.6659 17.3724 81.0281 16.4863 81.3918 15.5966L81.3924 15.5951C81.7555 14.7069 82.12 13.8152 82.4472 12.9013L82.4544 12.8811L82.4557 12.8597C82.4828 12.4089 82.2329 12.0359 81.8912 11.8386L81.8605 11.8209L81.8252 11.8187C81.3743 11.7917 81.0013 12.0415 80.804 12.3832L80.7973 12.3949L80.7927 12.4077C80.1403 14.2304 79.4904 16.0456 78.6917 17.7736L78.6916 17.7736L78.6894 17.779C78.5125 18.2047 78.3344 18.6324 78.1555 19.0621C76.7786 22.3689 75.3541 25.7901 74.0468 29.2791C73.9383 29.4759 73.9555 29.6808 74.0413 29.8545C74.1265 30.0267 74.2789 30.1706 74.448 30.2682Z" fill="#F57A00" stroke="#F57A00" stroke-width="0.3"/>
<path d="M84.7937 2.71287L84.7931 2.71262L84.7886 2.72525C84.4639 3.63242 84.1017 4.51854 83.738 5.40822L83.7373 5.4097C83.3758 6.29402 83.0129 7.18188 82.6868 8.09166C82.579 8.28812 82.5962 8.49261 82.682 8.666C82.7671 8.83829 82.9195 8.98212 83.0887 9.07977C83.3455 9.22806 83.5901 9.25217 83.8131 9.15073C84.0248 9.05443 84.1901 8.8564 84.3257 8.62163L84.3325 8.60992L84.337 8.59718C84.6617 7.69002 85.024 6.8039 85.3877 5.91422L85.3883 5.91275C85.7506 5.02639 86.1144 4.13648 86.441 3.2245C86.7991 2.43059 87.1412 1.57845 87.4818 0.729888L87.4825 0.72812C87.8246 -0.124202 88.1653 -0.972885 88.5214 -1.76209L88.5328 -1.78725L88.5344 -1.8148C88.5615 -2.26564 88.3117 -2.63864 87.9699 -2.83594L87.9393 -2.85365L87.9039 -2.85577C87.4531 -2.88283 87.0801 -2.63301 86.8828 -2.29127L86.879 -2.28479L86.876 -2.27798C86.5412 -1.53621 86.2392 -0.775864 85.9323 -0.00287366C85.9096 0.0540719 85.887 0.111086 85.8643 0.168167C85.5333 1.00118 85.1927 1.84945 84.7937 2.71287Z" fill="#F57A00" stroke="#F57A00" stroke-width="0.3"/>
</g>
</svg>
